<?xml version="1.0" encoding="UTF-8"?>
<svg xmlns="http://www.w3.org/2000/svg" xmlns:xlink="http://www.w3.org/1999/xlink" width="100px" height="35px" viewBox="0 0 99 35" version="1.1">
<g id="surface1">
<path style=" stroke:none;fill-rule:nonzero;fill:rgb(96.862745%,96.862745%,97.647059%);fill-opacity:1;" d="M 73.933594 34.953125 C 50.238281 34.953125 26.640625 34.953125 3.046875 34.953125 C 3.046875 23.480469 3.046875 11.996094 3.046875 0.519531 C 34.167969 0.519531 65.273438 0.519531 96.382812 0.519531 C 96.382812 11.996094 96.382812 23.480469 96.382812 34.953125 C 88.9375 34.953125 81.476562 34.953125 73.933594 34.953125 M 83.621094 5.277344 C 83.578125 4.847656 83.53125 4.410156 83.496094 3.972656 C 83.394531 4 83.285156 4.019531 83.167969 4.046875 C 83.324219 4.519531 83.46875 4.996094 83.613281 5.667969 C 83.695312 6.308594 83.78125 6.9375 83.871094 7.566406 C 83.960938 7.546875 84.058594 7.519531 84.167969 7.492188 C 83.988281 6.816406 83.808594 6.144531 83.621094 5.277344 M 54.339844 7.382812 C 54.203125 6.363281 54.050781 5.332031 53.894531 4.3125 C 53.777344 4.339844 53.675781 4.367188 53.558594 4.394531 C 53.804688 5.460938 54.078125 6.527344 54.332031 7.800781 C 54.484375 8.824219 54.632812 9.851562 54.777344 10.882812 C 54.894531 10.847656 55.023438 10.828125 55.140625 10.800781 C 54.867188 9.726562 54.605469 8.660156 54.339844 7.382812 M 53.457031 30.386719 C 53.484375 30.523438 53.511719 30.660156 53.53125 30.808594 C 53.574219 30.796875 53.613281 30.796875 53.648438 30.796875 C 53.648438 30.617188 53.648438 30.441406 53.675781 30.058594 C 53.414062 28.582031 53.167969 27.089844 52.910156 25.601562 C 52.785156 25.628906 52.675781 25.65625 52.558594 25.683594 C 52.847656 27.199219 53.148438 28.71875 53.457031 30.386719 M 88.394531 26.851562 C 88.109375 28.210938 87.828125 29.558594 87.378906 31.027344 C 86.046875 31.0625 84.734375 31.109375 83.433594 30.953125 C 83.269531 29.859375 83.097656 28.746094 82.929688 27.453125 C 82.882812 27.269531 82.8125 27.089844 82.785156 26.886719 C 82.40625 24.472656 82.03125 22.046875 81.621094 19.625 C 81.578125 19.378906 81.382812 19.148438 81.203125 18.949219 C 81.164062 18.914062 80.867188 19.023438 80.859375 19.105469 C 80.742188 19.613281 80.675781 20.125 80.609375 20.644531 C 80.703125 20.597656 80.792969 20.542969 80.894531 20.507812 C 81.128906 20.910156 81.496094 21.273438 81.585938 21.710938 C 81.992188 23.6875 82.332031 25.675781 82.703125 27.863281 C 82.902344 29.011719 83.089844 30.160156 83.339844 31.453125 C 83.378906 32.300781 83.808594 32.59375 84.554688 32.53125 C 85.140625 32.476562 85.734375 32.484375 86.316406 32.519531 C 87.378906 32.601562 87.972656 32.109375 88.136719 30.808594 C 88.332031 29.523438 88.519531 28.246094 88.835938 26.898438 C 88.871094 26.597656 88.898438 26.296875 88.9375 25.996094 C 88.871094 25.984375 88.820312 25.976562 88.753906 25.976562 C 88.675781 26.230469 88.601562 26.488281 88.394531 26.851562 M 58.988281 26.640625 C 58.691406 27.917969 58.390625 29.203125 58.027344 30.625 C 57.558594 30.863281 57.109375 31.246094 56.625 31.300781 C 55.667969 31.410156 54.6875 31.335938 53.628906 31.335938 C 54.066406 33.296875 55.460938 32.402344 56.40625 32.484375 C 57.988281 32.613281 58.152344 32.375 58.5625 30.34375 C 58.808594 29.046875 59.042969 27.753906 59.355469 26.277344 C 59.535156 25.082031 59.707031 23.898438 60.03125 22.621094 C 60.410156 20.636719 60.792969 18.648438 61.175781 16.671875 C 61.066406 16.632812 60.949219 16.605469 60.839844 16.570312 C 60.644531 17.28125 60.410156 17.992188 60.273438 18.722656 C 60.019531 20.035156 59.824219 21.363281 59.519531 22.839844 C 59.347656 24.042969 59.175781 25.246094 58.988281 26.640625 M 34.449219 16.480469 C 34.175781 17.902344 33.914062 19.324219 33.636719 20.746094 C 33.777344 20.773438 33.921875 20.800781 34.058594 20.828125 C 34.3125 19.332031 34.550781 17.828125 34.941406 16.242188 C 35.113281 14.910156 35.804688 13.644531 35.597656 12.25 C 35.480469 12.230469 35.378906 12.214844 35.265625 12.195312 C 35.03125 13.570312 34.785156 14.949219 34.449219 16.480469 M 91.921875 8.90625 C 91.703125 10.253906 91.148438 11.574219 91.375 12.960938 C 91.488281 12.980469 91.597656 12.988281 91.714844 13.007812 C 91.886719 11.683594 92.058594 10.363281 92.371094 8.96875 C 92.371094 8.824219 92.378906 8.675781 92.523438 8.414062 C 92.765625 7.0625 93.023438 5.707031 93.277344 4.355469 C 92.578125 4.847656 92.074219 7.621094 92.1875 8.613281 C 92.15625 8.675781 92.113281 8.730469 91.921875 8.90625 M 28.269531 12.46875 C 27.925781 14.265625 27.578125 16.070312 27.222656 17.863281 C 27.386719 17.890625 27.550781 17.917969 27.707031 17.957031 C 28.015625 16.078125 28.324219 14.199219 28.761719 12.214844 C 28.941406 11.238281 29.105469 10.261719 29.273438 9.277344 C 29.136719 9.261719 29.007812 9.242188 28.878906 9.222656 C 28.707031 10.253906 28.535156 11.285156 28.269531 12.46875 M 43.804688 25.59375 C 44.148438 24.207031 44.464844 22.8125 44.777344 21.429688 C 44.613281 21.382812 44.4375 21.347656 44.265625 21.308594 C 44.039062 22.796875 43.804688 24.28125 43.4375 25.867188 C 43.105469 27.542969 42.765625 29.222656 42.25 30.988281 C 40.839844 31.507812 39.417969 31.554688 38.023438 30.789062 C 37.980469 30.6875 37.945312 30.589844 37.960938 30.398438 C 37.824219 30.40625 37.671875 30.425781 37.386719 30.480469 C 34.4375 32.566406 31.621094 31.636719 28.761719 30.050781 C 29.535156 31.371094 30.554688 32.210938 32.046875 32.59375 C 32.214844 32.613281 32.394531 32.628906 32.753906 32.722656 C 33.566406 32.683594 34.375 32.667969 35.289062 32.695312 C 35.398438 32.648438 35.503906 32.59375 35.777344 32.539062 C 36.386719 32.191406 36.980469 31.828125 37.773438 31.5 C 38.167969 32.339844 38.78125 32.675781 39.679688 32.546875 C 40.28125 32.457031 40.910156 32.574219 41.53125 32.511719 C 42.375 32.429688 42.882812 31.992188 42.710938 30.796875 C 43.042969 29.113281 43.375 27.433594 43.804688 25.59375 M 50.777344 21.472656 C 50.589844 22.886719 49.976562 24.261719 50.21875 25.722656 C 50.308594 25.730469 50.425781 25.738281 50.535156 25.757812 C 50.757812 24.273438 51 22.785156 51.246094 21.136719 C 51.328125 20.980469 51.417969 20.835938 51.503906 20.679688 C 51.640625 20.882812 51.847656 21.0625 51.894531 21.292969 C 52.109375 22.429688 52.269531 23.589844 52.449219 24.738281 C 52.566406 24.710938 52.675781 24.683594 52.773438 24.664062 C 52.457031 22.714844 52.144531 20.753906 51.8125 18.792969 C 51.695312 18.777344 51.550781 18.757812 51.410156 18.730469 C 51.226562 19.585938 51.027344 20.445312 50.777344 21.472656 M 87.054688 11.15625 C 86.515625 13.828125 85.96875 16.496094 85.417969 19.167969 C 85.316406 19.160156 85.214844 19.148438 85.105469 19.140625 C 85.042969 18.847656 84.96875 18.558594 84.914062 18.265625 C 84.078125 13.636719 83.222656 9.003906 82.433594 4.375 C 82.289062 3.472656 81.957031 3.152344 81.15625 3.28125 C 80.445312 3.390625 79.628906 2.890625 79.367188 4.292969 C 77.792969 12.6875 76.101562 21.0625 74.46875 29.449219 C 74.421875 29.730469 74.421875 30.03125 74.394531 30.40625 C 75.222656 30.40625 75.949219 30.34375 76.667969 30.425781 C 77.523438 30.515625 77.890625 30.207031 78.042969 29.265625 C 78.609375 26.066406 79.273438 22.878906 79.902344 19.6875 C 80.320312 17.554688 80.742188 15.414062 81.164062 13.269531 C 81.523438 13.945312 81.75 14.601562 81.867188 15.277344 C 82.632812 19.914062 83.386719 24.5625 84.132812 29.203125 C 84.242188 29.859375 84.257812 30.5625 85.203125 30.414062 C 85.96875 30.296875 86.792969 30.734375 87.046875 29.3125 C 88.609375 20.992188 90.285156 12.695312 91.902344 4.394531 C 91.976562 4.066406 91.984375 3.726562 92.039062 3.28125 C 91.09375 3.28125 90.257812 3.328125 89.421875 3.273438 C 88.773438 3.226562 88.527344 3.480469 88.410156 4.15625 C 88.019531 6.433594 87.542969 8.695312 87.054688 11.15625 M 61.648438 7.300781 C 61.902344 6.007812 62.15625 4.722656 62.414062 3.335938 C 61.183594 3.335938 60.09375 3.335938 58.925781 3.335938 C 57.871094 8.621094 56.828125 13.890625 55.785156 19.167969 C 55.652344 19.148438 55.515625 19.132812 55.371094 19.105469 C 54.429688 13.855469 53.492188 8.605469 52.539062 3.28125 C 52.074219 3.28125 51.703125 3.335938 51.34375 3.273438 C 50.21875 3.0625 49.808594 3.554688 49.589844 4.777344 C 48.527344 10.554688 47.351562 16.316406 46.226562 22.074219 C 45.695312 24.800781 45.175781 27.527344 44.613281 30.332031 C 45.851562 30.332031 46.960938 30.332031 48.132812 30.332031 C 49.246094 24.617188 50.355469 18.96875 51.476562 13.308594 C 51.566406 13.308594 51.675781 13.296875 51.765625 13.289062 C 51.882812 13.808594 52.039062 14.308594 52.128906 14.828125 C 52.902344 19.585938 53.675781 24.355469 54.4375 29.113281 C 54.550781 29.777344 54.496094 30.550781 55.542969 30.425781 C 56.371094 30.324219 57.160156 30.605469 57.40625 29.183594 C 58.746094 21.949219 60.203125 14.71875 61.648438 7.300781 M 42.359375 26.722656 C 42.988281 23.515625 43.621094 20.296875 44.257812 17.015625 C 41.828125 17.015625 39.527344 17.015625 37.152344 17.015625 C 36.972656 17.917969 36.8125 18.785156 36.613281 19.824219 C 37.863281 19.824219 38.96875 19.824219 40.390625 19.824219 C 39.753906 21.746094 39.28125 23.480469 38.609375 25.109375 C 38.035156 26.476562 36.925781 27.261719 35.503906 27.453125 C 33.691406 27.707031 32.484375 26.707031 32.367188 24.765625 C 32.320312 23.988281 32.332031 23.179688 32.464844 22.421875 C 33.167969 18.601562 33.886719 14.785156 34.695312 11 C 34.914062 9.953125 35.398438 8.933594 35.929688 8.003906 C 36.757812 6.5625 38.132812 6.089844 39.652344 6.179688 C 41.199219 6.269531 41.910156 7.074219 41.902344 8.75 C 41.902344 9.796875 41.730469 10.847656 41.628906 11.949219 C 42.773438 11.949219 43.878906 11.949219 45.316406 11.949219 C 45.316406 10.390625 45.425781 8.90625 45.296875 7.4375 C 45.105469 5.050781 43.839844 3.699219 41.648438 3.226562 C 37.84375 2.425781 34.347656 4.066406 32.519531 7.710938 C 31.785156 9.1875 31.246094 10.808594 30.863281 12.433594 C 30.183594 15.320312 29.625 18.257812 29.15625 21.199219 C 28.925781 22.730469 28.824219 24.335938 28.925781 25.886719 C 29.070312 28.355469 30.191406 29.730469 32.222656 30.332031 C 34.714844 31.070312 36.515625 30.515625 37.933594 28.554688 C 38.144531 28.273438 38.351562 27.980469 38.679688 27.507812 C 38.796875 28.445312 38.84375 29.113281 38.96875 29.769531 C 39.023438 30.003906 39.253906 30.324219 39.453125 30.378906 C 41.117188 30.816406 41.65625 30.425781 41.992188 28.648438 C 42.109375 28.074219 42.203125 27.488281 42.359375 26.722656 M 13.210938 27.199219 C 12.207031 27.570312 11.152344 27.753906 10.261719 27.035156 C 8.570312 25.683594 9.171875 23.644531 9.136719 21.757812 C 8.515625 21.902344 7.988281 22.03125 7.449219 22.167969 C 5.316406 22.703125 5.316406 22.703125 5.421875 25.09375 C 5.53125 27.789062 6.710938 29.59375 8.832031 30.277344 C 12.207031 31.382812 16.019531 29.933594 17.707031 26.90625 C 19.597656 23.523438 19.125 19.640625 16.449219 16.789062 C 15.191406 15.457031 13.894531 14.183594 12.65625 12.84375 C 11.371094 11.429688 11.253906 9.125 12.339844 7.539062 C 13.128906 6.378906 14.605469 5.886719 15.992188 6.324219 C 17.097656 6.671875 17.671875 7.527344 17.78125 9.105469 C 17.824219 9.6875 17.789062 10.273438 17.789062 10.984375 C 18.933594 10.691406 19.972656 10.472656 20.972656 10.136719 C 21.207031 10.054688 21.457031 9.589844 21.492188 9.277344 C 21.808594 5.960938 20.21875 3.683594 17.140625 3.21875 C 16.078125 3.054688 14.949219 3.0625 13.886719 3.289062 C 10.972656 3.910156 9.078125 5.851562 8.242188 8.90625 C 7.441406 11.886719 7.933594 14.5 10.234375 16.5625 C 10.683594 16.960938 11.097656 17.417969 11.503906 17.863281 C 12.527344 18.984375 13.664062 20.023438 14.515625 21.273438 C 15.832031 23.207031 15.230469 25.847656 13.210938 27.199219 M 71.382812 25.265625 C 72.8125 17.984375 74.230469 10.699219 75.6875 3.28125 C 74.742188 3.28125 73.933594 3.34375 73.140625 3.261719 C 72.351562 3.179688 72.09375 3.535156 71.9375 4.339844 C 70.894531 9.871094 69.78125 15.402344 68.699219 20.925781 C 68.089844 24.035156 67.496094 27.144531 66.871094 30.332031 C 68.089844 30.332031 69.210938 30.332031 70.382812 30.332031 C 70.703125 28.683594 71.019531 27.070312 71.382812 25.265625 M 26.132812 3.28125 C 25.914062 3.609375 25.550781 3.910156 25.476562 4.273438 C 23.851562 12.421875 22.257812 20.570312 20.660156 28.730469 C 20.550781 29.238281 20.480469 29.769531 20.363281 30.40625 C 21.207031 30.40625 21.917969 30.332031 22.582031 30.425781 C 23.609375 30.570312 23.949219 30.097656 24.140625 29.066406 C 25.695312 20.910156 27.316406 12.761719 28.90625 4.601562 C 28.980469 4.203125 29.023438 3.792969 29.105469 3.28125 C 28.097656 3.28125 27.214844 3.28125 26.132812 3.28125 M 16.953125 30.605469 C 17.585938 29.785156 18.445312 29.113281 18.453125 27.871094 C 16.660156 29.988281 14.578125 31.316406 11.910156 31.589844 C 9.308594 31.855469 7.035156 31.164062 5.058594 29.257812 C 5.792969 31.207031 7.179688 32.230469 8.941406 32.601562 C 11.800781 33.195312 14.484375 32.683594 16.953125 30.605469 M 47.34375 32.519531 C 49.042969 32.503906 49.402344 32.136719 49.15625 30.769531 C 47.460938 31.917969 45.550781 31.007812 43.761719 31.410156 C 43.609375 32.183594 43.949219 32.503906 44.632812 32.511719 C 45.46875 32.519531 46.296875 32.519531 47.34375 32.519531 M 75.824219 32.519531 C 76.253906 32.519531 76.695312 32.492188 77.125 32.519531 C 78.164062 32.59375 78.972656 32.394531 78.855469 31.171875 C 77.0625 31.171875 75.25 31.171875 73.421875 31.171875 C 73.367188 31.335938 73.296875 31.507812 73.230469 31.671875 C 73.539062 31.957031 73.824219 32.355469 74.1875 32.484375 C 74.617188 32.621094 75.132812 32.519531 75.824219 32.519531 M 66.371094 32.449219 C 67.601562 32.464844 68.855469 32.519531 70.085938 32.503906 C 71.191406 32.492188 71.511719 32.011719 71.375 30.769531 C 69.683594 31.929688 67.753906 31.007812 65.839844 31.425781 C 65.976562 31.773438 66.089844 32.066406 66.371094 32.449219 M 9.894531 19.011719 C 11.164062 20.40625 12.4375 21.800781 13.785156 23.277344 C 13.867188 21.8125 8.84375 16.132812 7.378906 16.152344 C 8.257812 17.164062 9.023438 18.027344 9.894531 19.011719 M 24.355469 31.109375 C 22.71875 31.21875 21.089844 31.316406 19.191406 31.445312 C 19.507812 31.847656 19.742188 32.429688 20.019531 32.449219 C 21.363281 32.539062 22.71875 32.566406 24.066406 32.449219 C 24.886719 32.375 25.066406 31.574219 24.355469 31.109375 M 22.375 11.574219 C 22.375 11.285156 22.375 10.984375 22.375 10.835938 C 20.507812 11.300781 18.636719 11.757812 16.558594 12.277344 C 16.851562 12.613281 17.195312 13.253906 17.40625 13.199219 C 19.042969 12.777344 20.652344 12.242188 22.375 11.574219 M 40.589844 13.078125 C 40.410156 13.9375 40.8125 14.238281 41.539062 14.238281 C 42.449219 14.238281 43.367188 14.238281 44.285156 14.238281 C 45.796875 14.226562 46.042969 13.964844 46.0625 12.359375 C 45.613281 12.578125 45.15625 12.980469 44.679688 13.007812 C 43.359375 13.078125 42.046875 13.007812 40.589844 13.078125 M 74.421875 16.878906 C 74.671875 15.386719 74.941406 13.882812 75.230469 12.222656 C 74.429688 13.097656 71.792969 26.789062 72.25 27.992188 C 72.484375 26.652344 72.667969 25.53125 72.894531 24.417969 C 73.378906 21.976562 73.878906 19.523438 74.421875 16.878906 M 36.207031 9.789062 C 36.207031 9.84375 36.214844 9.890625 36.214844 9.933594 C 36.324219 9.90625 36.460938 9.90625 36.523438 9.835938 C 37.707031 8.367188 39.128906 8.03125 40.8125 8.921875 C 40.875 7.582031 40.136719 7.320312 39.21875 7.265625 C 37.726562 7.171875 36.449219 8.222656 36.207031 9.789062 M 16.648438 8.859375 C 16.207031 7.511719 15.585938 7.074219 14.382812 7.292969 C 13.410156 7.472656 12.792969 8.257812 12.828125 9.261719 C 12.9375 9.242188 13.058594 9.25 13.128906 9.195312 C 14.292969 8.285156 15.421875 7.992188 16.511719 9.304688 C 16.558594 9.214844 16.605469 9.113281 16.648438 8.859375 M 35.894531 20.652344 C 35.371094 21.382812 35.6875 21.765625 36.386719 21.875 C 36.878906 21.957031 37.40625 21.867188 37.90625 21.910156 C 38.671875 21.984375 38.960938 21.628906 38.890625 20.679688 C 37.945312 20.679688 37.015625 20.679688 35.894531 20.652344 M 79.808594 24.847656 C 79.683594 25.519531 79.554688 26.203125 79.4375 26.886719 C 79.589844 26.914062 79.753906 26.941406 79.902344 26.96875 C 80.113281 25.738281 80.328125 24.5 80.527344 23.269531 C 80.429688 23.242188 80.328125 23.207031 80.21875 23.179688 C 80.085938 23.671875 79.957031 24.164062 79.808594 24.847656 M 62.457031 8.003906 C 62.222656 9.105469 62 10.207031 61.765625 11.320312 C 61.929688 11.355469 62.101562 11.394531 62.257812 11.421875 C 62.496094 10.179688 62.722656 8.933594 62.980469 7.554688 C 62.738281 7.71875 62.648438 7.785156 62.457031 8.003906 M 85.042969 12.550781 C 84.925781 11.914062 84.796875 11.285156 84.660156 10.644531 C 84.582031 10.664062 84.5 10.671875 84.429688 10.691406 C 84.660156 12.03125 84.90625 13.363281 85.152344 14.703125 C 85.230469 14.691406 85.316406 14.675781 85.390625 14.65625 C 85.300781 14.019531 85.214844 13.378906 85.042969 12.550781 M 55.105469 11.59375 C 55.203125 12.625 55.289062 13.644531 55.398438 14.675781 C 55.515625 14.65625 55.625 14.636719 55.734375 14.621094 C 55.5625 13.644531 55.371094 12.679688 55.105469 11.59375 M 84.25 8.730469 C 84.242188 8.585938 84.222656 8.441406 84.207031 8.292969 C 84.160156 8.292969 84.113281 8.3125 84.058594 8.3125 C 84.085938 8.476562 84.125 8.640625 84.25 8.730469 M 16.710938 10.363281 C 16.738281 10.464844 16.765625 10.574219 16.792969 10.683594 C 16.824219 10.664062 16.863281 10.644531 16.90625 10.636719 C 16.84375 10.5 16.792969 10.371094 16.710938 10.363281 M 84.285156 9.660156 C 84.3125 9.761719 84.351562 9.863281 84.441406 10.21875 C 84.46875 9.835938 84.488281 9.714844 84.476562 9.625 C 84.46875 9.578125 84.367188 9.5625 84.285156 9.660156 Z M 84.285156 9.660156 "/>
<path style=" stroke:none;fill-rule:nonzero;fill:rgb(7.058824%,12.54902%,43.137255%);fill-opacity:1;" d="M 87.074219 11.066406 C 87.542969 8.695312 88.019531 6.433594 88.410156 4.15625 C 88.527344 3.480469 88.773438 3.226562 89.421875 3.273438 C 90.257812 3.328125 91.09375 3.28125 92.039062 3.28125 C 91.984375 3.726562 91.976562 4.066406 91.902344 4.394531 C 90.285156 12.695312 88.609375 20.992188 87.046875 29.3125 C 86.792969 30.734375 85.96875 30.296875 85.203125 30.414062 C 84.257812 30.5625 84.242188 29.859375 84.132812 29.203125 C 83.386719 24.5625 82.632812 19.914062 81.867188 15.277344 C 81.75 14.601562 81.523438 13.945312 81.164062 13.269531 C 80.742188 15.414062 80.320312 17.554688 79.902344 19.6875 C 79.273438 22.878906 78.609375 26.066406 78.042969 29.265625 C 77.890625 30.207031 77.523438 30.515625 76.667969 30.425781 C 75.949219 30.34375 75.222656 30.40625 74.394531 30.40625 C 74.421875 30.03125 74.421875 29.730469 74.46875 29.449219 C 76.101562 21.0625 77.792969 12.6875 79.367188 4.292969 C 79.628906 2.890625 80.445312 3.390625 81.15625 3.28125 C 81.957031 3.152344 82.289062 3.472656 82.433594 4.375 C 83.222656 9.003906 84.078125 13.636719 84.914062 18.265625 C 84.96875 18.558594 85.042969 18.847656 85.105469 19.140625 C 85.214844 19.148438 85.316406 19.160156 85.417969 19.167969 C 85.96875 16.496094 86.515625 13.828125 87.074219 11.066406 Z M 87.074219 11.066406 "/>
<path style=" stroke:none;fill-rule:nonzero;fill:rgb(7.058824%,12.54902%,43.137255%);fill-opacity:1;" d="M 61.628906 7.402344 C 60.203125 14.71875 58.746094 21.949219 57.40625 29.183594 C 57.160156 30.605469 56.371094 30.324219 55.542969 30.425781 C 54.496094 30.550781 54.550781 29.777344 54.4375 29.113281 C 53.675781 24.355469 52.902344 19.585938 52.128906 14.828125 C 52.039062 14.308594 51.882812 13.808594 51.765625 13.289062 C 51.675781 13.296875 51.566406 13.308594 51.476562 13.308594 C 50.355469 18.96875 49.246094 24.617188 48.132812 30.332031 C 46.960938 30.332031 45.851562 30.332031 44.613281 30.332031 C 45.175781 27.527344 45.695312 24.800781 46.226562 22.074219 C 47.351562 16.316406 48.527344 10.554688 49.589844 4.777344 C 49.808594 3.554688 50.21875 3.0625 51.34375 3.273438 C 51.703125 3.335938 52.074219 3.28125 52.539062 3.28125 C 53.492188 8.605469 54.429688 13.855469 55.371094 19.105469 C 55.515625 19.132812 55.652344 19.148438 55.785156 19.167969 C 56.828125 13.890625 57.871094 8.621094 58.925781 3.335938 C 60.09375 3.335938 61.183594 3.335938 62.414062 3.335938 C 62.15625 4.722656 61.902344 6.007812 61.628906 7.402344 Z M 61.628906 7.402344 "/>
<path style=" stroke:none;fill-rule:nonzero;fill:rgb(7.45098%,12.54902%,43.529412%);fill-opacity:1;" d="M 42.339844 26.824219 C 42.203125 27.488281 42.109375 28.074219 41.992188 28.648438 C 41.65625 30.425781 41.117188 30.816406 39.453125 30.378906 C 39.253906 30.324219 39.023438 30.003906 38.96875 29.769531 C 38.84375 29.113281 38.796875 28.445312 38.679688 27.507812 C 38.351562 27.980469 38.144531 28.273438 37.933594 28.554688 C 36.515625 30.515625 34.714844 31.070312 32.222656 30.332031 C 30.191406 29.730469 29.070312 28.355469 28.925781 25.886719 C 28.824219 24.335938 28.925781 22.730469 29.15625 21.199219 C 29.625 18.257812 30.183594 15.320312 30.863281 12.433594 C 31.246094 10.808594 31.785156 9.1875 32.519531 7.710938 C 34.347656 4.066406 37.84375 2.425781 41.648438 3.226562 C 43.839844 3.699219 45.105469 5.050781 45.296875 7.4375 C 45.425781 8.90625 45.316406 10.390625 45.316406 11.949219 C 43.878906 11.949219 42.773438 11.949219 41.628906 11.949219 C 41.730469 10.847656 41.902344 9.796875 41.902344 8.75 C 41.910156 7.074219 41.199219 6.269531 39.652344 6.179688 C 38.132812 6.089844 36.757812 6.5625 35.929688 8.003906 C 35.398438 8.933594 34.914062 9.953125 34.695312 11 C 33.886719 14.785156 33.167969 18.601562 32.464844 22.421875 C 32.332031 23.179688 32.320312 23.988281 32.367188 24.765625 C 32.484375 26.707031 33.691406 27.707031 35.503906 27.453125 C 36.925781 27.261719 38.035156 26.476562 38.609375 25.109375 C 39.28125 23.480469 39.753906 21.746094 40.390625 19.824219 C 38.96875 19.824219 37.863281 19.824219 36.613281 19.824219 C 36.8125 18.785156 36.972656 17.917969 37.152344 17.015625 C 39.527344 17.015625 41.828125 17.015625 44.257812 17.015625 C 43.621094 20.296875 42.988281 23.515625 42.339844 26.824219 Z M 42.339844 26.824219 "/>
<path style=" stroke:none;fill-rule:nonzero;fill:rgb(7.058824%,12.54902%,43.137255%);fill-opacity:1;" d="M 13.292969 27.160156 C 15.230469 25.847656 15.832031 23.207031 14.515625 21.273438 C 13.664062 20.023438 12.527344 18.984375 11.503906 17.863281 C 11.097656 17.417969 10.683594 16.960938 10.234375 16.5625 C 7.933594 14.5 7.441406 11.886719 8.242188 8.90625 C 9.078125 5.851562 10.972656 3.910156 13.886719 3.289062 C 14.949219 3.0625 16.078125 3.054688 17.140625 3.21875 C 20.21875 3.683594 21.808594 5.960938 21.492188 9.277344 C 21.457031 9.589844 21.207031 10.054688 20.972656 10.136719 C 19.972656 10.472656 18.933594 10.691406 17.789062 10.984375 C 17.789062 10.273438 17.824219 9.6875 17.78125 9.105469 C 17.671875 7.527344 17.097656 6.671875 15.992188 6.324219 C 14.605469 5.886719 13.128906 6.378906 12.339844 7.539062 C 11.253906 9.125 11.371094 11.429688 12.65625 12.84375 C 13.894531 14.183594 15.191406 15.457031 16.449219 16.789062 C 19.125 19.640625 19.597656 23.523438 17.707031 26.90625 C 16.019531 29.933594 12.207031 31.382812 8.832031 30.277344 C 6.710938 29.59375 5.53125 27.789062 5.421875 25.09375 C 5.316406 22.703125 5.316406 22.703125 7.449219 22.167969 C 7.988281 22.03125 8.515625 21.902344 9.136719 21.757812 C 9.171875 23.644531 8.570312 25.683594 10.261719 27.035156 C 11.152344 27.753906 12.207031 27.570312 13.292969 27.160156 Z M 13.292969 27.160156 "/>
<path style=" stroke:none;fill-rule:nonzero;fill:rgb(7.45098%,12.941176%,43.529412%);fill-opacity:1;" d="M 71.363281 25.367188 C 71.019531 27.070312 70.703125 28.683594 70.382812 30.332031 C 69.210938 30.332031 68.089844 30.332031 66.871094 30.332031 C 67.496094 27.144531 68.089844 24.035156 68.699219 20.925781 C 69.78125 15.402344 70.894531 9.871094 71.9375 4.339844 C 72.09375 3.535156 72.351562 3.179688 73.140625 3.261719 C 73.933594 3.34375 74.742188 3.28125 75.6875 3.28125 C 74.230469 10.699219 72.8125 17.984375 71.363281 25.367188 Z M 71.363281 25.367188 "/>
<path style=" stroke:none;fill-rule:nonzero;fill:rgb(7.45098%,12.54902%,43.529412%);fill-opacity:1;" d="M 26.234375 3.28125 C 27.214844 3.28125 28.097656 3.28125 29.105469 3.28125 C 29.023438 3.792969 28.980469 4.203125 28.90625 4.601562 C 27.316406 12.761719 25.695312 20.910156 24.140625 29.066406 C 23.949219 30.097656 23.609375 30.570312 22.582031 30.425781 C 21.917969 30.332031 21.207031 30.40625 20.363281 30.40625 C 20.480469 29.769531 20.550781 29.238281 20.660156 28.730469 C 22.257812 20.570312 23.851562 12.421875 25.476562 4.273438 C 25.550781 3.910156 25.914062 3.609375 26.234375 3.28125 Z M 26.234375 3.28125 "/>
<path style=" stroke:none;fill-rule:nonzero;fill:rgb(10.196078%,10.196078%,10.196078%);fill-opacity:1;" d="M 16.890625 30.660156 C 14.484375 32.683594 11.800781 33.195312 8.941406 32.601562 C 7.179688 32.230469 5.792969 31.207031 5.058594 29.257812 C 7.035156 31.164062 9.308594 31.855469 11.910156 31.589844 C 14.578125 31.316406 16.660156 29.988281 18.453125 27.871094 C 18.445312 29.113281 17.585938 29.785156 16.890625 30.660156 Z M 16.890625 30.660156 "/>
<path style=" stroke:none;fill-rule:nonzero;fill:rgb(6.27451%,6.27451%,6.27451%);fill-opacity:1;" d="M 31.945312 32.492188 C 30.554688 32.210938 29.535156 31.371094 28.761719 30.050781 C 31.621094 31.636719 34.4375 32.566406 37.53125 30.480469 C 37.734375 30.480469 37.824219 30.488281 37.898438 30.496094 C 37.945312 30.589844 37.980469 30.6875 37.960938 30.890625 C 37.800781 31.152344 37.691406 31.308594 37.589844 31.472656 C 36.980469 31.828125 36.386719 32.191406 35.667969 32.503906 C 35.433594 32.511719 35.308594 32.574219 35.175781 32.628906 C 34.375 32.667969 33.566406 32.683594 32.628906 32.613281 C 32.3125 32.503906 32.128906 32.503906 31.945312 32.492188 Z M 31.945312 32.492188 "/>
<path style=" stroke:none;fill-rule:nonzero;fill:rgb(12.156863%,12.156863%,12.156863%);fill-opacity:1;" d="M 47.242188 32.519531 C 46.296875 32.519531 45.46875 32.519531 44.632812 32.511719 C 43.949219 32.503906 43.609375 32.183594 43.761719 31.410156 C 45.550781 31.007812 47.460938 31.917969 49.15625 30.769531 C 49.402344 32.136719 49.042969 32.503906 47.242188 32.519531 Z M 47.242188 32.519531 "/>
<path style=" stroke:none;fill-rule:nonzero;fill:rgb(12.156863%,12.156863%,12.156863%);fill-opacity:1;" d="M 75.707031 32.519531 C 75.132812 32.519531 74.617188 32.621094 74.1875 32.484375 C 73.824219 32.355469 73.539062 31.957031 73.230469 31.671875 C 73.296875 31.507812 73.367188 31.335938 73.421875 31.171875 C 75.25 31.171875 77.0625 31.171875 78.855469 31.171875 C 78.972656 32.394531 78.164062 32.59375 77.125 32.519531 C 76.695312 32.492188 76.253906 32.519531 75.707031 32.519531 Z M 75.707031 32.519531 "/>
<path style=" stroke:none;fill-rule:nonzero;fill:rgb(12.156863%,12.156863%,12.156863%);fill-opacity:1;" d="M 66.296875 32.402344 C 66.089844 32.066406 65.976562 31.773438 65.839844 31.425781 C 67.753906 31.007812 69.683594 31.929688 71.375 30.769531 C 71.511719 32.011719 71.191406 32.492188 70.085938 32.503906 C 68.855469 32.519531 67.601562 32.464844 66.296875 32.402344 Z M 66.296875 32.402344 "/>
<path style=" stroke:none;fill-rule:nonzero;fill:rgb(17.647059%,17.647059%,17.647059%);fill-opacity:1;" d="M 9.84375 18.957031 C 9.023438 18.027344 8.257812 17.164062 7.378906 16.152344 C 8.84375 16.132812 13.867188 21.8125 13.785156 23.277344 C 12.4375 21.800781 11.164062 20.40625 9.84375 18.957031 Z M 9.84375 18.957031 "/>
<path style=" stroke:none;fill-rule:nonzero;fill:rgb(12.156863%,12.156863%,12.156863%);fill-opacity:1;" d="M 24.4375 31.042969 C 25.066406 31.574219 24.886719 32.375 24.066406 32.449219 C 22.71875 32.566406 21.363281 32.539062 20.019531 32.449219 C 19.742188 32.429688 19.507812 31.847656 19.191406 31.445312 C 21.089844 31.316406 22.71875 31.21875 24.4375 31.042969 Z M 24.4375 31.042969 "/>
<path style=" stroke:none;fill-rule:nonzero;fill:rgb(12.156863%,12.156863%,12.156863%);fill-opacity:1;" d="M 22.332031 11.65625 C 20.652344 12.242188 19.042969 12.777344 17.40625 13.199219 C 17.195312 13.253906 16.851562 12.613281 16.558594 12.277344 C 18.636719 11.757812 20.507812 11.300781 22.375 10.835938 C 22.375 10.984375 22.375 11.285156 22.332031 11.65625 Z M 22.332031 11.65625 "/>
<path style=" stroke:none;fill-rule:nonzero;fill:rgb(17.647059%,17.647059%,17.647059%);fill-opacity:1;" d="M 37.679688 31.480469 C 37.691406 31.308594 37.800781 31.152344 37.953125 30.972656 C 39.417969 31.554688 40.839844 31.507812 42.386719 30.972656 C 42.566406 30.953125 42.613281 30.960938 42.648438 30.960938 C 42.882812 31.992188 42.375 32.429688 41.53125 32.511719 C 40.910156 32.574219 40.28125 32.457031 39.679688 32.546875 C 38.78125 32.675781 38.167969 32.339844 37.679688 31.480469 Z M 37.679688 31.480469 "/>
<path style=" stroke:none;fill-rule:nonzero;fill:rgb(14.509804%,14.509804%,14.509804%);fill-opacity:1;" d="M 40.65625 13.035156 C 42.046875 13.007812 43.359375 13.078125 44.679688 13.007812 C 45.15625 12.980469 45.613281 12.578125 46.0625 12.359375 C 46.042969 13.964844 45.796875 14.226562 44.285156 14.238281 C 43.367188 14.238281 42.449219 14.238281 41.539062 14.238281 C 40.8125 14.238281 40.410156 13.9375 40.65625 13.035156 Z M 40.65625 13.035156 "/>
<path style=" stroke:none;fill-rule:nonzero;fill:rgb(34.901961%,34.901961%,34.901961%);fill-opacity:1;" d="M 74.402344 16.980469 C 73.878906 19.523438 73.378906 21.976562 72.894531 24.417969 C 72.667969 25.53125 72.484375 26.652344 72.25 27.992188 C 71.792969 26.789062 74.429688 13.097656 75.230469 12.222656 C 74.941406 13.882812 74.671875 15.386719 74.402344 16.980469 Z M 74.402344 16.980469 "/>
<path style=" stroke:none;fill-rule:nonzero;fill:rgb(12.156863%,12.156863%,12.156863%);fill-opacity:1;" d="M 83.40625 31.152344 C 84.734375 31.109375 86.046875 31.0625 87.542969 30.972656 C 87.820312 30.933594 87.917969 30.933594 88.027344 30.945312 C 87.972656 32.109375 87.378906 32.601562 86.316406 32.519531 C 85.734375 32.484375 85.140625 32.476562 84.554688 32.53125 C 83.808594 32.59375 83.378906 32.300781 83.367188 31.363281 C 83.394531 31.234375 83.40625 31.191406 83.40625 31.152344 Z M 83.40625 31.152344 "/>
<path style=" stroke:none;fill-rule:nonzero;fill:rgb(13.333333%,13.333333%,13.333333%);fill-opacity:1;" d="M 36.234375 9.734375 C 36.449219 8.222656 37.726562 7.171875 39.21875 7.265625 C 40.136719 7.320312 40.875 7.582031 40.8125 8.921875 C 39.128906 8.03125 37.707031 8.367188 36.523438 9.835938 C 36.460938 9.90625 36.324219 9.90625 36.214844 9.933594 C 36.214844 9.890625 36.207031 9.84375 36.234375 9.734375 Z M 36.234375 9.734375 "/>
<path style=" stroke:none;fill-rule:nonzero;fill:rgb(12.941176%,12.941176%,12.941176%);fill-opacity:1;" d="M 58.464844 30.496094 C 58.152344 32.375 57.988281 32.613281 56.40625 32.484375 C 55.460938 32.402344 54.066406 33.296875 53.628906 31.335938 C 54.6875 31.335938 55.667969 31.410156 56.625 31.300781 C 57.109375 31.246094 57.558594 30.863281 58.125 30.570312 C 58.304688 30.496094 58.382812 30.496094 58.464844 30.496094 Z M 58.464844 30.496094 "/>
<path style=" stroke:none;fill-rule:nonzero;fill:rgb(15.294118%,15.294118%,15.294118%);fill-opacity:1;" d="M 16.660156 8.941406 C 16.605469 9.113281 16.558594 9.214844 16.511719 9.304688 C 15.421875 7.992188 14.292969 8.285156 13.128906 9.195312 C 13.058594 9.25 12.9375 9.242188 12.828125 9.261719 C 12.792969 8.257812 13.410156 7.472656 14.382812 7.292969 C 15.585938 7.074219 16.207031 7.511719 16.660156 8.941406 Z M 16.660156 8.941406 "/>
<path style=" stroke:none;fill-rule:nonzero;fill:rgb(14.117647%,14.117647%,14.117647%);fill-opacity:1;" d="M 35.996094 20.664062 C 37.015625 20.679688 37.945312 20.679688 38.890625 20.679688 C 38.960938 21.628906 38.671875 21.984375 37.90625 21.910156 C 37.40625 21.867188 36.878906 21.957031 36.386719 21.875 C 35.6875 21.765625 35.371094 21.382812 35.996094 20.664062 Z M 35.996094 20.664062 "/>
<path style=" stroke:none;fill-rule:nonzero;fill:rgb(79.607843%,79.607843%,79.607843%);fill-opacity:1;" d="M 82.683594 27.664062 C 82.332031 25.675781 81.992188 23.6875 81.585938 21.710938 C 81.496094 21.273438 81.128906 20.910156 80.894531 20.507812 C 80.792969 20.542969 80.703125 20.597656 80.609375 20.644531 C 80.675781 20.125 80.742188 19.613281 80.859375 19.105469 C 80.867188 19.023438 81.164062 18.914062 81.203125 18.949219 C 81.382812 19.148438 81.578125 19.378906 81.621094 19.625 C 82.03125 22.046875 82.40625 24.472656 82.785156 26.886719 C 82.8125 27.089844 82.882812 27.269531 82.875 27.554688 C 82.765625 27.652344 82.730469 27.652344 82.683594 27.664062 Z M 82.683594 27.664062 "/>
<path style=" stroke:none;fill-rule:nonzero;fill:rgb(77.647059%,77.647059%,77.647059%);fill-opacity:1;" d="M 50.828125 21.300781 C 51.027344 20.445312 51.226562 19.585938 51.410156 18.730469 C 51.550781 18.757812 51.695312 18.777344 51.8125 18.792969 C 52.144531 20.753906 52.457031 22.714844 52.773438 24.664062 C 52.675781 24.683594 52.566406 24.710938 52.449219 24.738281 C 52.269531 23.589844 52.109375 22.429688 51.894531 21.292969 C 51.847656 21.0625 51.640625 20.882812 51.503906 20.679688 C 51.417969 20.835938 51.328125 20.980469 51.183594 21.21875 C 51.019531 21.300781 50.929688 21.300781 50.828125 21.300781 Z M 50.828125 21.300781 "/>
<path style=" stroke:none;fill-rule:nonzero;fill:rgb(50.588235%,50.588235%,50.588235%);fill-opacity:1;" d="M 42.683594 30.878906 C 42.613281 30.960938 42.566406 30.953125 42.464844 30.925781 C 42.765625 29.222656 43.105469 27.542969 43.546875 25.804688 C 43.648438 25.75 43.710938 25.75 43.710938 25.75 C 43.375 27.433594 43.042969 29.113281 42.683594 30.878906 Z M 42.683594 30.878906 "/>
<path style=" stroke:none;fill-rule:nonzero;fill:rgb(35.294118%,35.294118%,35.294118%);fill-opacity:1;" d="M 59.628906 22.6875 C 59.824219 21.363281 60.019531 20.035156 60.273438 18.722656 C 60.410156 17.992188 60.644531 17.28125 60.839844 16.570312 C 60.949219 16.605469 61.066406 16.632812 61.175781 16.671875 C 60.792969 18.648438 60.410156 20.636719 59.886719 22.660156 C 59.707031 22.695312 59.664062 22.695312 59.628906 22.6875 Z M 59.628906 22.6875 "/>
<path style=" stroke:none;fill-rule:nonzero;fill:rgb(41.176471%,41.176471%,41.176471%);fill-opacity:1;" d="M 50.800781 21.390625 C 50.929688 21.300781 51.019531 21.300781 51.171875 21.308594 C 51 22.785156 50.757812 24.273438 50.535156 25.757812 C 50.425781 25.738281 50.308594 25.730469 50.21875 25.722656 C 49.976562 24.261719 50.589844 22.886719 50.800781 21.390625 Z M 50.800781 21.390625 "/>
<path style=" stroke:none;fill-rule:nonzero;fill:rgb(42.745098%,42.745098%,42.745098%);fill-opacity:1;" d="M 28.617188 12.324219 C 28.324219 14.199219 28.015625 16.078125 27.707031 17.957031 C 27.550781 17.917969 27.386719 17.890625 27.222656 17.863281 C 27.578125 16.070312 27.925781 14.265625 28.382812 12.394531 C 28.535156 12.3125 28.582031 12.324219 28.617188 12.324219 Z M 28.617188 12.324219 "/>
<path style=" stroke:none;fill-rule:nonzero;fill:rgb(39.607843%,39.607843%,39.607843%);fill-opacity:1;" d="M 92.269531 8.539062 C 92.074219 7.621094 92.578125 4.847656 93.277344 4.355469 C 93.023438 5.707031 92.765625 7.0625 92.421875 8.476562 C 92.324219 8.53125 92.269531 8.539062 92.269531 8.539062 Z M 92.269531 8.539062 "/>
<path style=" stroke:none;fill-rule:nonzero;fill:rgb(38.431373%,38.431373%,38.431373%);fill-opacity:1;" d="M 92.242188 9.042969 C 92.058594 10.363281 91.886719 11.683594 91.714844 13.007812 C 91.597656 12.988281 91.488281 12.980469 91.375 12.960938 C 91.148438 11.574219 91.703125 10.253906 92.039062 8.914062 C 92.175781 8.96875 92.207031 9.003906 92.242188 9.042969 Z M 92.242188 9.042969 "/>
<path style=" stroke:none;fill-rule:nonzero;fill:rgb(47.058824%,47.058824%,47.058824%);fill-opacity:1;" d="M 34.542969 16.324219 C 34.785156 14.949219 35.03125 13.570312 35.265625 12.195312 C 35.378906 12.214844 35.480469 12.230469 35.597656 12.25 C 35.804688 13.644531 35.113281 14.910156 34.804688 16.289062 C 34.632812 16.324219 34.585938 16.324219 34.542969 16.324219 Z M 34.542969 16.324219 "/>
<path style=" stroke:none;fill-rule:nonzero;fill:rgb(38.823529%,38.823529%,38.823529%);fill-opacity:1;" d="M 58.519531 30.414062 C 58.382812 30.496094 58.304688 30.496094 58.160156 30.496094 C 58.390625 29.203125 58.691406 27.917969 59.050781 26.542969 C 59.105469 26.449219 59.183594 26.449219 59.183594 26.449219 C 59.183594 26.449219 59.273438 26.460938 59.273438 26.460938 C 59.042969 27.753906 58.808594 29.046875 58.519531 30.414062 Z M 58.519531 30.414062 "/>
<path style=" stroke:none;fill-rule:nonzero;fill:rgb(35.294118%,35.294118%,35.294118%);fill-opacity:1;" d="M 88.082031 30.878906 C 87.917969 30.933594 87.820312 30.933594 87.621094 30.917969 C 87.828125 29.558594 88.109375 28.210938 88.511719 26.859375 C 88.648438 26.886719 88.683594 26.925781 88.710938 26.960938 C 88.519531 28.246094 88.332031 29.523438 88.082031 30.878906 Z M 88.082031 30.878906 "/>
<path style=" stroke:none;fill-rule:nonzero;fill:rgb(44.313725%,44.313725%,44.313725%);fill-opacity:1;" d="M 43.761719 25.667969 C 43.710938 25.75 43.648438 25.75 43.609375 25.757812 C 43.804688 24.28125 44.039062 22.796875 44.265625 21.308594 C 44.4375 21.347656 44.613281 21.382812 44.777344 21.429688 C 44.464844 22.8125 44.148438 24.207031 43.761719 25.667969 Z M 43.761719 25.667969 "/>
<path style=" stroke:none;fill-rule:nonzero;fill:rgb(37.254902%,37.254902%,37.254902%);fill-opacity:1;" d="M 79.828125 24.746094 C 79.957031 24.164062 80.085938 23.671875 80.21875 23.179688 C 80.328125 23.207031 80.429688 23.242188 80.527344 23.269531 C 80.328125 24.5 80.113281 25.738281 79.902344 26.96875 C 79.753906 26.941406 79.589844 26.914062 79.4375 26.886719 C 79.554688 26.203125 79.683594 25.519531 79.828125 24.746094 Z M 79.828125 24.746094 "/>
<path style=" stroke:none;fill-rule:nonzero;fill:rgb(34.901961%,34.901961%,34.901961%);fill-opacity:1;" d="M 62.503906 7.921875 C 62.648438 7.785156 62.738281 7.71875 62.980469 7.554688 C 62.722656 8.933594 62.496094 10.179688 62.257812 11.421875 C 62.101562 11.394531 61.929688 11.355469 61.765625 11.320312 C 62 10.207031 62.222656 9.105469 62.503906 7.921875 Z M 62.503906 7.921875 "/>
<path style=" stroke:none;fill-rule:nonzero;fill:rgb(40.392157%,40.392157%,40.392157%);fill-opacity:1;" d="M 34.5 16.40625 C 34.585938 16.324219 34.632812 16.324219 34.730469 16.332031 C 34.550781 17.828125 34.3125 19.332031 34.058594 20.828125 C 33.921875 20.800781 33.777344 20.773438 33.636719 20.746094 C 33.914062 19.324219 34.175781 17.902344 34.5 16.40625 Z M 34.5 16.40625 "/>
<path style=" stroke:none;fill-rule:nonzero;fill:rgb(34.901961%,34.901961%,34.901961%);fill-opacity:1;" d="M 59.320312 26.367188 C 59.273438 26.460938 59.183594 26.449219 59.183594 26.449219 C 59.183594 26.449219 59.105469 26.449219 59.0625 26.449219 C 59.175781 25.246094 59.347656 24.042969 59.574219 22.769531 C 59.664062 22.695312 59.707031 22.695312 59.824219 22.695312 C 59.707031 23.898438 59.535156 25.082031 59.320312 26.367188 Z M 59.320312 26.367188 "/>
<path style=" stroke:none;fill-rule:nonzero;fill:rgb(79.215686%,79.215686%,79.215686%);fill-opacity:1;" d="M 53.449219 30.234375 C 53.148438 28.71875 52.847656 27.199219 52.558594 25.683594 C 52.675781 25.65625 52.785156 25.628906 52.910156 25.601562 C 53.167969 27.089844 53.414062 28.582031 53.613281 30.152344 C 53.546875 30.242188 53.449219 30.234375 53.449219 30.234375 Z M 53.449219 30.234375 "/>
<path style=" stroke:none;fill-rule:nonzero;fill:rgb(46.27451%,46.27451%,46.27451%);fill-opacity:1;" d="M 28.691406 12.269531 C 28.582031 12.324219 28.535156 12.3125 28.4375 12.3125 C 28.535156 11.285156 28.707031 10.253906 28.878906 9.222656 C 29.007812 9.242188 29.136719 9.261719 29.273438 9.277344 C 29.105469 10.261719 28.941406 11.238281 28.691406 12.269531 Z M 28.691406 12.269531 "/>
<path style=" stroke:none;fill-rule:nonzero;fill:rgb(89.411765%,89.411765%,89.411765%);fill-opacity:1;" d="M 85.078125 12.640625 C 85.214844 13.378906 85.300781 14.019531 85.390625 14.65625 C 85.316406 14.675781 85.230469 14.691406 85.152344 14.703125 C 84.90625 13.363281 84.660156 12.03125 84.429688 10.691406 C 84.5 10.671875 84.582031 10.664062 84.660156 10.644531 C 84.796875 11.285156 84.925781 11.914062 85.078125 12.640625 Z M 85.078125 12.640625 "/>
<path style=" stroke:none;fill-rule:nonzero;fill:rgb(76.862745%,76.862745%,76.862745%);fill-opacity:1;" d="M 82.695312 27.761719 C 82.730469 27.652344 82.765625 27.652344 82.875 27.644531 C 83.097656 28.746094 83.269531 29.859375 83.414062 31.054688 C 83.40625 31.191406 83.394531 31.234375 83.339844 31.289062 C 83.089844 30.160156 82.902344 29.011719 82.695312 27.761719 Z M 82.695312 27.761719 "/>
<path style=" stroke:none;fill-rule:nonzero;fill:rgb(89.803922%,89.803922%,89.803922%);fill-opacity:1;" d="M 54.339844 7.59375 C 54.605469 8.660156 54.867188 9.726562 55.140625 10.800781 C 55.023438 10.828125 54.894531 10.847656 54.777344 10.882812 C 54.632812 9.851562 54.484375 8.824219 54.339844 7.691406 C 54.339844 7.59375 54.339844 7.59375 54.339844 7.59375 Z M 54.339844 7.59375 "/>
<path style=" stroke:none;fill-rule:nonzero;fill:rgb(89.803922%,89.803922%,89.803922%);fill-opacity:1;" d="M 55.160156 11.648438 C 55.371094 12.679688 55.5625 13.644531 55.734375 14.621094 C 55.625 14.636719 55.515625 14.65625 55.398438 14.675781 C 55.289062 13.644531 55.203125 12.625 55.160156 11.648438 Z M 55.160156 11.648438 "/>
<path style=" stroke:none;fill-rule:nonzero;fill:rgb(89.803922%,89.803922%,89.803922%);fill-opacity:1;" d="M 54.339844 7.59375 C 54.078125 6.527344 53.804688 5.460938 53.558594 4.394531 C 53.675781 4.367188 53.777344 4.339844 53.894531 4.3125 C 54.050781 5.332031 54.203125 6.363281 54.339844 7.492188 C 54.339844 7.59375 54.339844 7.59375 54.339844 7.59375 Z M 54.339844 7.59375 "/>
<path style=" stroke:none;fill-rule:nonzero;fill:rgb(89.411765%,89.411765%,89.411765%);fill-opacity:1;" d="M 83.621094 5.46875 C 83.808594 6.144531 83.988281 6.816406 84.167969 7.492188 C 84.058594 7.519531 83.960938 7.546875 83.871094 7.566406 C 83.78125 6.9375 83.695312 6.308594 83.613281 5.578125 C 83.621094 5.46875 83.621094 5.46875 83.621094 5.46875 Z M 83.621094 5.46875 "/>
<path style=" stroke:none;fill-rule:nonzero;fill:rgb(89.411765%,89.411765%,89.411765%);fill-opacity:1;" d="M 83.613281 5.46875 C 83.46875 4.996094 83.324219 4.519531 83.167969 4.046875 C 83.285156 4.019531 83.394531 4 83.496094 3.972656 C 83.53125 4.410156 83.578125 4.847656 83.621094 5.378906 C 83.621094 5.46875 83.621094 5.46875 83.613281 5.46875 Z M 83.613281 5.46875 "/>
<path style=" stroke:none;fill-rule:nonzero;fill:rgb(35.294118%,35.294118%,35.294118%);fill-opacity:1;" d="M 88.574219 26.804688 C 88.601562 26.488281 88.675781 26.230469 88.753906 25.976562 C 88.820312 25.976562 88.871094 25.984375 88.9375 25.996094 C 88.898438 26.296875 88.871094 26.597656 88.773438 26.933594 C 88.683594 26.925781 88.648438 26.886719 88.574219 26.804688 Z M 88.574219 26.804688 "/>
<path style=" stroke:none;fill-rule:nonzero;fill:rgb(17.647059%,17.647059%,17.647059%);fill-opacity:1;" d="M 32 32.539062 C 32.128906 32.503906 32.3125 32.503906 32.53125 32.574219 C 32.394531 32.628906 32.214844 32.613281 32 32.539062 Z M 32 32.539062 "/>
<path style=" stroke:none;fill-rule:nonzero;fill:rgb(17.647059%,17.647059%,17.647059%);fill-opacity:1;" d="M 35.230469 32.667969 C 35.308594 32.574219 35.433594 32.511719 35.597656 32.492188 C 35.503906 32.59375 35.398438 32.648438 35.230469 32.667969 Z M 35.230469 32.667969 "/>
<path style=" stroke:none;fill-rule:nonzero;fill:rgb(17.647059%,17.647059%,17.647059%);fill-opacity:1;" d="M 37.933594 30.441406 C 37.824219 30.488281 37.734375 30.480469 37.601562 30.453125 C 37.671875 30.425781 37.824219 30.40625 37.933594 30.441406 Z M 37.933594 30.441406 "/>
<path style=" stroke:none;fill-rule:nonzero;fill:rgb(89.411765%,89.411765%,89.411765%);fill-opacity:1;" d="M 84.207031 8.769531 C 84.125 8.640625 84.085938 8.476562 84.058594 8.3125 C 84.113281 8.3125 84.160156 8.292969 84.207031 8.292969 C 84.222656 8.441406 84.242188 8.585938 84.207031 8.769531 Z M 84.207031 8.769531 "/>
<path style=" stroke:none;fill-rule:nonzero;fill:rgb(77.647059%,77.647059%,77.647059%);fill-opacity:1;" d="M 16.722656 10.300781 C 16.792969 10.371094 16.84375 10.5 16.90625 10.636719 C 16.863281 10.644531 16.824219 10.664062 16.792969 10.683594 C 16.765625 10.574219 16.738281 10.464844 16.722656 10.300781 Z M 16.722656 10.300781 "/>
<path style=" stroke:none;fill-rule:nonzero;fill:rgb(89.411765%,89.411765%,89.411765%);fill-opacity:1;" d="M 84.296875 9.597656 C 84.367188 9.5625 84.46875 9.578125 84.476562 9.625 C 84.488281 9.714844 84.46875 9.835938 84.441406 10.21875 C 84.351562 9.863281 84.3125 9.761719 84.296875 9.597656 Z M 84.296875 9.597656 "/>
<path style=" stroke:none;fill-rule:nonzero;fill:rgb(65.882353%,65.882353%,65.882353%);fill-opacity:1;" d="M 53.449219 30.316406 C 53.449219 30.234375 53.546875 30.242188 53.601562 30.25 C 53.648438 30.441406 53.648438 30.617188 53.648438 30.796875 C 53.613281 30.796875 53.574219 30.796875 53.53125 30.808594 C 53.511719 30.660156 53.484375 30.523438 53.449219 30.316406 Z M 53.449219 30.316406 "/>
<path style=" stroke:none;fill-rule:nonzero;fill:rgb(38.431373%,38.431373%,38.431373%);fill-opacity:1;" d="M 92.234375 8.578125 C 92.269531 8.539062 92.324219 8.53125 92.351562 8.53125 C 92.378906 8.675781 92.371094 8.824219 92.296875 9.003906 C 92.207031 9.003906 92.175781 8.96875 92.113281 8.859375 C 92.113281 8.730469 92.15625 8.675781 92.234375 8.578125 Z M 92.234375 8.578125 "/>
</g>
</svg>
