<?xml version="1.0" encoding="UTF-8"?>
<svg xmlns="http://www.w3.org/2000/svg" xmlns:xlink="http://www.w3.org/1999/xlink" width="105px" height="37px" viewBox="0 0 105 37" version="1.1">
<g id="surface1">
<path style=" stroke:none;fill-rule:nonzero;fill:rgb(96.862745%,96.862745%,97.647059%);fill-opacity:1;" d="M 78.75 34.449219 C 53.679688 34.449219 28.710938 34.449219 3.722656 34.449219 C 3.722656 23.984375 3.722656 13.519531 3.722656 3.035156 C 36.371094 3.035156 69.046875 3.035156 101.707031 3.035156 C 101.707031 13.507812 101.707031 23.972656 101.707031 34.449219 C 94.085938 34.449219 86.476562 34.449219 78.75 34.449219 M 31.085938 6.734375 C 31.09375 6.640625 31.105469 6.554688 31.117188 6.300781 C 31.066406 6.164062 31.011719 6.03125 30.839844 5.644531 C 30.773438 6.1875 30.746094 6.4375 30.667969 6.859375 C 30.59375 7.542969 30.523438 8.230469 30.449219 8.921875 C 30.449219 8.921875 30.457031 8.941406 30.335938 8.933594 C 30.328125 9.027344 30.316406 9.113281 30.1875 9.289062 C 30.160156 9.5 30.121094 9.691406 30.027344 10.066406 C 29.78125 11.621094 29.503906 13.160156 29.121094 14.828125 C 28.855469 16.136719 28.488281 17.4375 28.347656 18.769531 C 28.519531 18.796875 28.691406 18.828125 28.871094 18.847656 C 29.035156 17.46875 29.207031 16.09375 29.46875 14.570312 C 29.808594 13.007812 30.140625 11.457031 30.550781 9.75 C 30.59375 9.5 30.652344 9.230469 30.746094 8.796875 C 30.820312 8.113281 30.90625 7.4375 30.972656 6.734375 C 30.972656 6.734375 30.953125 6.726562 31.085938 6.734375 M 74.664062 11.945312 C 74.746094 11.410156 74.828125 10.878906 75.007812 10.210938 C 75.304688 8.691406 75.605469 7.167969 75.898438 5.644531 C 75.738281 5.617188 75.597656 5.585938 75.449219 5.550781 C 75.136719 7.148438 74.839844 8.75 74.484375 10.523438 C 74.425781 10.925781 74.359375 11.332031 74.238281 11.910156 C 74.238281 12.160156 74.238281 12.410156 74.238281 12.652344 C 74.3125 12.660156 74.378906 12.660156 74.449219 12.667969 C 74.492188 12.480469 74.550781 12.292969 74.664062 11.945312 M 81.316406 28.03125 C 81.519531 27.480469 81.734375 26.933594 81.9375 26.382812 C 81.832031 26.324219 81.699219 26.246094 81.574219 26.1875 C 81.324219 26.710938 81.074219 27.238281 80.75 28.03125 C 80.886719 28.058594 81.039062 28.097656 81.316406 28.03125 M 49.882812 31.152344 C 50.035156 30.167969 50.542969 29.195312 50.28125 28.191406 C 50.15625 28.175781 50.027344 28.15625 49.890625 28.144531 C 49.730469 29.175781 49.59375 30.214844 49.382812 31.363281 C 49.367188 31.441406 49.335938 31.527344 49.15625 31.691406 C 48.734375 31.816406 48.308594 32.035156 47.886719 32.058594 C 46.683594 32.105469 45.484375 32.078125 44.300781 32.078125 C 44.328125 33.078125 44.386719 33.183594 45.125 33.214844 C 46.003906 33.25 46.902344 33.164062 47.777344 33.242188 C 48.808594 33.328125 49.511719 33.019531 49.695312 31.679688 C 49.710938 31.535156 49.730469 31.390625 49.882812 31.152344 M 28.101562 19.925781 C 27.65625 22.277344 27.203125 24.621094 26.757812 26.96875 C 26.921875 27 27.09375 27.035156 27.273438 27.066406 C 27.648438 24.714844 28.015625 22.363281 28.507812 19.945312 C 28.507812 19.828125 28.519531 19.714844 28.519531 19.597656 C 28.433594 19.675781 28.335938 19.75 28.101562 19.925781 M 52.046875 20.929688 C 52.011719 20.542969 51.972656 20.167969 51.917969 19.511719 C 50.992188 21.429688 50.359375 25.167969 50.808594 25.746094 C 51.132812 24.347656 51.421875 22.960938 51.859375 21.6875 C 52.1875 23.355469 52.5 25.011719 52.804688 26.679688 C 53.074219 28.164062 53.3125 29.65625 53.578125 31.152344 C 53.8125 30.949219 53.859375 30.757812 53.828125 30.589844 C 53.492188 28.421875 53.160156 26.246094 52.765625 24.085938 C 52.585938 23.074219 52.269531 22.09375 52.046875 20.929688 M 25.644531 31.769531 C 25.210938 31.875 24.757812 32.046875 24.320312 32.058594 C 23.148438 32.105469 21.964844 32.078125 20.777344 32.078125 C 20.640625 32.933594 21.007812 33.222656 21.640625 33.222656 C 22.539062 33.222656 23.425781 33.164062 24.292969 33.242188 C 25.421875 33.347656 26.054688 32.867188 26.304688 31.574219 C 26.492188 30.488281 26.691406 29.40625 26.867188 28.320312 C 26.777344 28.289062 26.664062 28.261719 26.5625 28.234375 C 26.296875 29.367188 26.039062 30.503906 25.644531 31.769531 M 88.109375 31.335938 C 88.3125 29.984375 88.863281 28.683594 88.691406 27.296875 C 88.597656 27.277344 88.484375 27.265625 88.382812 27.25 C 88.148438 28.644531 87.902344 30.042969 87.574219 31.585938 C 87.109375 31.746094 86.65625 32.027344 86.199219 32.046875 C 84.984375 32.113281 83.761719 32.066406 82.511719 32.066406 C 82.359375 32.914062 82.699219 33.234375 83.417969 33.222656 C 84.257812 33.222656 85.097656 33.234375 85.957031 33.234375 C 87.535156 33.222656 87.664062 33.105469 88.109375 31.335938 M 38.515625 32.238281 C 38.847656 33.089844 39.457031 33.347656 40.28125 33.25 C 40.796875 33.183594 41.332031 33.25 41.855469 33.234375 C 43.019531 33.203125 43.308594 32.828125 43.179688 31.660156 C 41.703125 32.179688 40.230469 32.355469 38.730469 31.546875 C 38.695312 31.449219 38.65625 31.355469 38.671875 31.179688 C 38.542969 31.179688 38.410156 31.179688 38.148438 31.238281 C 35.171875 33.242188 32.398438 32.492188 29.644531 30.402344 C 30.019531 31.757812 31.261719 32.789062 32.988281 33.308594 C 33.160156 33.320312 33.320312 33.335938 33.679688 33.425781 C 34.453125 33.394531 35.226562 33.367188 36.144531 33.386719 C 36.503906 33.234375 36.867188 33.089844 37.375 32.902344 C 37.695312 32.664062 38.011719 32.433594 38.515625 32.238281 M 90.214844 21.074219 C 91.027344 21.050781 91.839844 21.050781 92.648438 21.023438 C 95.636719 20.898438 98.269531 18.90625 98.996094 16.070312 C 98.695312 16.246094 98.429688 16.496094 98.191406 16.765625 C 97.863281 17.140625 97.566406 17.566406 97.214844 17.902344 C 95.4375 19.597656 93.28125 20.050781 91.003906 19.867188 C 90.050781 19.800781 89.714844 20.195312 89.640625 21.238281 C 89.285156 22.84375 88.957031 24.445312 88.617188 26.054688 C 88.761719 26.09375 88.921875 26.132812 89.074219 26.160156 C 89.382812 24.492188 89.707031 22.816406 90.214844 21.074219 M 60.347656 14.9375 C 60.996094 11.589844 61.640625 8.246094 62.292969 4.835938 C 61.070312 4.835938 60.027344 4.835938 58.917969 4.835938 C 57.882812 10.125 56.855469 15.371094 55.828125 20.617188 C 55.742188 20.617188 55.664062 20.609375 55.578125 20.609375 C 54.640625 15.378906 53.714844 10.136719 52.765625 4.847656 C 51.898438 4.847656 51.113281 4.847656 50.195312 4.847656 C 48.515625 13.578125 46.816406 22.308594 45.089844 31.167969 C 45.984375 31.167969 46.722656 31.125 47.46875 31.191406 C 48.230469 31.257812 48.5625 30.988281 48.714844 30.121094 C 49.335938 26.632812 50.042969 23.164062 50.703125 19.683594 C 51.085938 17.84375 51.441406 16.015625 51.804688 14.183594 C 52.070312 14.480469 52.148438 14.761719 52.195312 15.050781 C 53 20.0625 53.8125 25.0625 54.605469 30.070312 C 54.726562 30.792969 54.851562 31.3125 55.699219 31.179688 C 56.410156 31.074219 57.171875 31.488281 57.421875 30.15625 C 58.316406 25.128906 59.335938 20.128906 60.347656 14.9375 M 31.28125 30.054688 C 34.359375 32.179688 37.105469 32 39.355469 28.40625 C 39.441406 28.964844 39.484375 29.261719 39.535156 29.5625 C 39.742188 31.199219 39.742188 31.160156 41.320312 31.191406 C 42.027344 31.210938 42.339844 30.96875 42.429688 30.207031 C 42.566406 29.261719 42.792969 28.335938 42.964844 27.402344 C 43.558594 24.347656 44.148438 21.296875 44.777344 18.09375 C 42.546875 18.09375 40.421875 18.085938 38.308594 18.117188 C 38.148438 18.117188 37.890625 18.304688 37.851562 18.460938 C 37.671875 19.214844 37.554688 19.972656 37.394531 20.878906 C 38.617188 20.878906 39.667969 20.878906 41.042969 20.878906 C 40.382812 22.785156 39.875 24.53125 39.203125 26.1875 C 38.75 27.265625 37.851562 27.945312 36.757812 28.210938 C 34.597656 28.753906 33.277344 27.65625 33.253906 25.265625 C 33.253906 24.53125 33.285156 23.796875 33.417969 23.085938 C 33.898438 20.386719 34.394531 17.691406 34.957031 15.003906 C 35.265625 13.480469 35.605469 11.945312 36.113281 10.492188 C 36.742188 8.710938 38.011719 7.679688 39.839844 7.59375 C 41.640625 7.496094 42.507812 8.363281 42.472656 10.289062 C 42.453125 11.265625 42.3125 12.226562 42.21875 13.277344 C 43.203125 13.277344 44.074219 13.324219 44.953125 13.257812 C 45.191406 13.230469 45.574219 12.855469 45.601562 12.601562 C 45.707031 11.324219 45.878906 10.011719 45.757812 8.730469 C 45.542969 6.445312 44.328125 5.183594 42.253906 4.730469 C 38.550781 3.929688 35.140625 5.558594 33.378906 9.164062 C 32.6875 10.558594 32.175781 12.113281 31.832031 13.652344 C 31.175781 16.425781 30.652344 19.25 30.199219 22.0625 C 29.960938 23.558594 29.796875 25.128906 29.949219 26.613281 C 30.0625 27.757812 30.746094 28.839844 31.28125 30.054688 M 82.691406 17.699219 C 83.511719 13.441406 84.34375 9.191406 85.183594 4.847656 C 84 4.847656 82.914062 4.847656 81.8125 4.847656 C 81.707031 5.339844 81.605469 5.78125 81.519531 6.214844 C 80.390625 11.902344 79.308594 17.59375 78.148438 23.261719 C 77.90625 24.425781 77.4375 25.589844 76.855469 26.613281 C 76 28.132812 74.027344 28.734375 72.519531 28.144531 C 71.332031 27.671875 70.847656 26.59375 71.074219 24.476562 C 71.242188 22.886719 71.550781 21.3125 71.859375 19.742188 C 72.804688 14.800781 73.765625 9.867188 74.734375 4.855469 C 73.578125 4.855469 72.5 4.855469 71.386719 4.855469 C 71.332031 5.058594 71.273438 5.230469 71.242188 5.414062 C 70.136719 11.0625 69 16.699219 67.96875 22.351562 C 67.691406 23.875 67.632812 25.476562 67.75 27.019531 C 67.929688 29.445312 69.242188 30.792969 71.460938 31.210938 C 75.957031 32.058594 79.355469 30.003906 80.933594 25.207031 C 81.714844 22.855469 82.085938 20.328125 82.691406 17.699219 M 9.78125 11.121094 C 9.328125 13.691406 9.941406 15.847656 11.800781 17.613281 C 13.058594 18.796875 14.214844 20.089844 15.390625 21.351562 C 16.503906 22.554688 16.925781 23.972656 16.523438 25.648438 C 16.070312 27.539062 14.824219 28.523438 13.097656 28.328125 C 11.601562 28.15625 10.839844 27.085938 10.773438 25.042969 C 10.753906 24.308594 10.773438 23.566406 10.773438 22.769531 C 10.269531 22.894531 9.828125 23 9.378906 23.117188 C 7.042969 23.710938 7.023438 23.742188 7.289062 26.398438 C 7.496094 28.566406 8.347656 30.265625 10.394531 31.007812 C 13.640625 32.164062 17.40625 30.785156 19.089844 27.816406 C 20.949219 24.5625 20.5 20.71875 17.917969 17.949219 C 16.71875 16.660156 15.46875 15.414062 14.265625 14.113281 C 13.03125 12.757812 12.878906 10.628906 13.851562 9.046875 C 14.589844 7.871094 15.964844 7.332031 17.328125 7.699219 C 18.476562 8.015625 19.058594 8.835938 19.195312 10.414062 C 19.230469 10.984375 19.195312 11.542969 19.195312 12.277344 C 20.339844 11.976562 21.359375 11.734375 22.359375 11.425781 C 22.539062 11.378906 22.699219 11.070312 22.746094 10.847656 C 23.273438 8.257812 21.871094 5.664062 19.507812 4.90625 C 15.085938 3.449219 10.90625 6.050781 9.78125 11.121094 M 87.5 27.710938 C 88.0625 24.839844 88.605469 21.96875 89.195312 19.011719 C 90.136719 19.011719 91.003906 19.019531 91.882812 19.011719 C 95.382812 18.941406 97.847656 17.082031 98.847656 13.613281 C 99.183594 12.457031 99.371094 11.222656 99.429688 10.023438 C 99.554688 6.554688 98.015625 4.855469 94.796875 4.789062 C 93.019531 4.75 91.242188 4.835938 89.488281 4.761719 C 88.691406 4.71875 88.476562 5.066406 88.328125 5.820312 C 87.230469 11.621094 86.074219 17.410156 84.976562 23.203125 C 84.453125 25.804688 83.964844 28.414062 83.445312 31.023438 C 86.542969 31.644531 86.753906 31.5 87.34375 28.464844 C 87.382812 28.269531 87.429688 28.089844 87.5 27.710938 M 23.082031 23.796875 C 22.625 26.21875 22.144531 28.636719 21.660156 31.167969 C 22.613281 31.167969 23.386719 31.125 24.164062 31.191406 C 24.859375 31.246094 25.125 30.9375 25.257812 30.199219 C 26.273438 24.800781 27.34375 19.417969 28.382812 14.027344 C 28.96875 11.003906 29.550781 7.976562 30.179688 4.777344 C 29.386719 4.777344 28.671875 4.855469 27.976562 4.761719 C 26.976562 4.625 26.683594 5.097656 26.492188 6.089844 C 25.402344 11.9375 24.234375 17.777344 23.082031 23.796875 M 7.507812 31.355469 C 8.375 31.96875 9.1875 32.816406 10.148438 33.148438 C 13.539062 34.273438 18.570312 33.089844 20.253906 28.347656 C 16.164062 32.664062 11.828125 34.117188 6.695312 29.859375 C 7.042969 30.546875 7.210938 30.890625 7.507812 31.355469 M 76.691406 32.808594 C 78.574219 31.992188 79.929688 30.601562 80.792969 28.65625 C 79.378906 29.589844 78.117188 30.757812 76.683594 31.585938 C 75.203125 32.453125 73.511719 32.433594 71.820312 32.316406 C 70.089844 32.210938 68.683594 31.335938 67.304688 30.3125 C 67.988281 32.230469 69.402344 33.078125 71.121094 33.378906 C 72.945312 33.695312 74.777344 33.609375 76.691406 32.808594 M 62.8125 9.257812 C 63.007812 8.035156 63.199219 6.8125 63.390625 5.597656 C 62.558594 6.820312 58.703125 27.230469 59.113281 27.914062 C 59.75 24.773438 60.402344 21.738281 60.996094 18.683594 C 61.59375 15.609375 62.144531 12.507812 62.8125 9.257812 M 9.515625 17.710938 C 11.492188 19.734375 13.453125 21.746094 15.351562 23.695312 C 15.304688 22.886719 10.371094 17.160156 8.90625 16.496094 C 9.121094 16.949219 9.273438 17.257812 9.515625 17.710938 M 20.527344 14.105469 C 21.167969 13.941406 21.820312 13.757812 22.488281 13.625 C 23.414062 13.433594 23.75 12.8125 23.683594 12.0625 C 21.878906 12.535156 20.066406 13.027344 18.171875 13.527344 C 18.148438 14.144531 18.390625 14.605469 19.210938 14.425781 C 19.59375 14.335938 19.980469 14.242188 20.527344 14.105469 M 42.367188 15.4375 C 43.242188 15.4375 44.121094 15.445312 44.988281 15.4375 C 46.269531 15.425781 46.671875 14.894531 46.53125 13.335938 C 45.910156 14.539062 44.90625 14.257812 43.984375 14.269531 C 43.058594 14.28125 42.132812 14.269531 41.160156 14.269531 C 41.121094 15.15625 41.484375 15.472656 42.367188 15.4375 M 39.925781 9.800781 C 40.414062 9.921875 40.914062 10.050781 41.414062 10.175781 C 41.28125 8.902344 40.5625 8.433594 39.203125 8.679688 C 37.96875 8.902344 36.824219 10.289062 36.992188 11.078125 C 37.890625 10.667969 38.816406 10.234375 39.925781 9.800781 M 36.285156 15.097656 C 36.34375 14.511719 36.402344 13.914062 36.457031 13.316406 C 35.503906 15.300781 34.105469 23.394531 34.53125 23.984375 C 35.117188 21.015625 35.683594 18.152344 36.285156 15.097656 M 54.03125 32.875 C 54.84375 32.992188 55.632812 33.183594 56.445312 33.214844 C 57.945312 33.261719 58.03125 33.148438 58.234375 31.855469 C 56.945312 31.949219 55.597656 32.105469 54.269531 32.105469 C 53.585938 32.113281 53.542969 32.222656 54.03125 32.875 M 44.082031 25.648438 C 43.9375 26.5 43.796875 27.355469 43.652344 28.203125 C 43.515625 28.957031 43.386719 29.707031 43.253906 30.46875 C 43.386719 30.488281 43.507812 30.515625 43.644531 30.546875 C 44.246094 26.644531 45.371094 22.84375 45.859375 18.914062 C 45.746094 18.894531 45.636719 18.867188 45.523438 18.847656 C 45.046875 21.042969 44.578125 23.25 44.082031 25.648438 M 17.96875 10.6875 C 18.027344 10.675781 18.070312 10.6875 18.121094 10.675781 C 18.140625 10.65625 18.15625 10.589844 18.140625 10.570312 C 17.789062 9.964844 17.542969 9.132812 17.035156 8.816406 C 16.316406 8.375 15.402344 8.546875 14.835938 9.328125 C 14.503906 9.769531 13.792969 10.242188 14.410156 11.050781 C 15.371094 9.566406 16.746094 9.394531 17.96875 10.6875 M 73.882812 15.9375 C 74.058594 14.925781 74.238281 13.914062 74.425781 12.902344 C 74.285156 12.871094 74.144531 12.855469 74.007812 12.8125 C 73.3125 16.476562 72.601562 20.117188 71.894531 23.769531 C 72.054688 23.808594 72.226562 23.847656 72.382812 23.886719 C 72.859375 21.296875 73.3125 18.695312 73.882812 15.9375 M 38.042969 22.902344 C 39.527344 22.894531 39.527344 22.894531 39.507812 21.757812 C 38.492188 21.757812 37.496094 21.757812 36.457031 21.757812 C 36.371094 23.046875 37.171875 22.886719 38.042969 22.902344 M 83.207031 21.457031 C 83.601562 19.117188 84.375 16.84375 84.332031 14.425781 C 83.707031 16.628906 83.246094 18.875 82.796875 21.121094 C 82.777344 21.246094 82.96875 21.417969 83.207031 21.457031 M 85.730469 6.308594 C 85.511719 7.429688 85.292969 8.546875 85.070312 9.675781 C 84.871094 10.714844 84.660156 11.746094 84.464844 12.785156 C 84.59375 12.8125 84.738281 12.855469 84.882812 12.882812 C 85.359375 10.472656 85.855469 8.074219 86.332031 5.664062 C 86.21875 5.636719 86.097656 5.609375 86.003906 5.570312 C 85.917969 5.753906 85.84375 5.945312 85.730469 6.308594 M 55.164062 11.84375 C 54.804688 9.808594 54.417969 7.777344 54.058594 5.742188 C 53.964844 5.761719 53.859375 5.78125 53.785156 5.800781 C 54.363281 9.078125 54.957031 12.351562 55.539062 15.628906 C 55.644531 15.609375 55.75 15.589844 55.851562 15.570312 C 55.625 14.394531 55.394531 13.21875 55.164062 11.84375 M 82.300781 24.417969 C 82.09375 24.867188 81.878906 25.320312 81.679688 25.777344 C 81.820312 25.832031 81.9375 25.890625 82.0625 25.9375 C 82.167969 25.496094 82.273438 25.03125 82.300781 24.417969 M 80.664062 28.367188 C 80.714844 28.394531 80.765625 28.421875 80.792969 28.464844 C 80.792969 28.386719 80.792969 28.320312 80.664062 28.367188 M 26.976562 27.945312 C 26.976562 27.945312 26.96875 27.921875 26.976562 27.945312 M 81.851562 26.1875 C 81.859375 26.140625 81.886719 26.09375 81.917969 26.054688 C 81.851562 26.054688 81.800781 26.066406 81.851562 26.1875 Z M 81.851562 26.1875 "/>
<path style=" stroke:none;fill-rule:nonzero;fill:rgb(7.45098%,12.54902%,43.529412%);fill-opacity:1;" d="M 60.324219 15.023438 C 59.335938 20.128906 58.316406 25.128906 57.421875 30.15625 C 57.171875 31.488281 56.410156 31.074219 55.699219 31.179688 C 54.851562 31.3125 54.726562 30.792969 54.605469 30.070312 C 53.8125 25.0625 53 20.0625 52.195312 15.050781 C 52.148438 14.761719 52.070312 14.480469 51.804688 14.183594 C 51.441406 16.015625 51.085938 17.84375 50.703125 19.683594 C 50.042969 23.164062 49.335938 26.632812 48.714844 30.121094 C 48.5625 30.988281 48.230469 31.257812 47.46875 31.191406 C 46.722656 31.125 45.984375 31.167969 45.089844 31.167969 C 46.816406 22.308594 48.515625 13.578125 50.195312 4.847656 C 51.113281 4.847656 51.898438 4.847656 52.765625 4.847656 C 53.714844 10.136719 54.640625 15.378906 55.578125 20.609375 C 55.664062 20.609375 55.742188 20.617188 55.828125 20.617188 C 56.855469 15.371094 57.882812 10.125 58.917969 4.835938 C 60.027344 4.835938 61.070312 4.835938 62.292969 4.835938 C 61.640625 8.246094 60.996094 11.589844 60.324219 15.023438 Z M 60.324219 15.023438 "/>
<path style=" stroke:none;fill-rule:nonzero;fill:rgb(7.45098%,12.941176%,43.529412%);fill-opacity:1;" d="M 31.210938 30.003906 C 30.746094 28.839844 30.0625 27.757812 29.949219 26.613281 C 29.796875 25.128906 29.960938 23.558594 30.199219 22.0625 C 30.652344 19.25 31.175781 16.425781 31.832031 13.652344 C 32.175781 12.113281 32.6875 10.558594 33.378906 9.164062 C 35.140625 5.558594 38.550781 3.929688 42.253906 4.730469 C 44.328125 5.183594 45.542969 6.445312 45.757812 8.730469 C 45.878906 10.011719 45.707031 11.324219 45.601562 12.601562 C 45.574219 12.855469 45.191406 13.230469 44.953125 13.257812 C 44.074219 13.324219 43.203125 13.277344 42.21875 13.277344 C 42.3125 12.226562 42.453125 11.265625 42.472656 10.289062 C 42.507812 8.363281 41.640625 7.496094 39.839844 7.59375 C 38.011719 7.679688 36.742188 8.710938 36.113281 10.492188 C 35.605469 11.945312 35.265625 13.480469 34.957031 15.003906 C 34.394531 17.691406 33.898438 20.386719 33.417969 23.085938 C 33.285156 23.796875 33.253906 24.53125 33.253906 25.265625 C 33.277344 27.65625 34.597656 28.753906 36.757812 28.210938 C 37.851562 27.945312 38.75 27.265625 39.203125 26.1875 C 39.875 24.53125 40.382812 22.785156 41.042969 20.878906 C 39.667969 20.878906 38.617188 20.878906 37.394531 20.878906 C 37.554688 19.972656 37.671875 19.214844 37.851562 18.460938 C 37.890625 18.304688 38.148438 18.117188 38.308594 18.117188 C 40.421875 18.085938 42.546875 18.09375 44.777344 18.09375 C 44.148438 21.296875 43.558594 24.347656 42.964844 27.402344 C 42.792969 28.335938 42.566406 29.261719 42.429688 30.207031 C 42.339844 30.96875 42.027344 31.210938 41.320312 31.191406 C 39.742188 31.160156 39.742188 31.199219 39.535156 29.5625 C 39.484375 29.261719 39.441406 28.964844 39.355469 28.40625 C 37.105469 32 34.359375 32.179688 31.210938 30.003906 Z M 31.210938 30.003906 "/>
<path style=" stroke:none;fill-rule:nonzero;fill:rgb(7.45098%,12.54902%,43.529412%);fill-opacity:1;" d="M 82.671875 17.796875 C 82.085938 20.328125 81.714844 22.855469 80.933594 25.207031 C 79.355469 30.003906 75.957031 32.058594 71.460938 31.210938 C 69.242188 30.792969 67.929688 29.445312 67.75 27.019531 C 67.632812 25.476562 67.691406 23.875 67.96875 22.351562 C 69 16.699219 70.136719 11.0625 71.242188 5.414062 C 71.273438 5.230469 71.332031 5.058594 71.386719 4.855469 C 72.5 4.855469 73.578125 4.855469 74.734375 4.855469 C 73.765625 9.867188 72.804688 14.800781 71.859375 19.742188 C 71.550781 21.3125 71.242188 22.886719 71.074219 24.476562 C 70.847656 26.59375 71.332031 27.671875 72.519531 28.144531 C 74.027344 28.734375 76 28.132812 76.855469 26.613281 C 77.4375 25.589844 77.90625 24.425781 78.148438 23.261719 C 79.308594 17.59375 80.390625 11.902344 81.519531 6.214844 C 81.605469 5.78125 81.707031 5.339844 81.8125 4.847656 C 82.914062 4.847656 84 4.847656 85.183594 4.847656 C 84.34375 9.191406 83.511719 13.441406 82.671875 17.796875 Z M 82.671875 17.796875 "/>
<path style=" stroke:none;fill-rule:nonzero;fill:rgb(7.45098%,12.54902%,43.529412%);fill-opacity:1;" d="M 9.796875 11.023438 C 10.90625 6.050781 15.085938 3.449219 19.507812 4.90625 C 21.871094 5.664062 23.273438 8.257812 22.746094 10.847656 C 22.699219 11.070312 22.539062 11.378906 22.359375 11.425781 C 21.359375 11.734375 20.339844 11.976562 19.195312 12.277344 C 19.195312 11.542969 19.230469 10.984375 19.195312 10.414062 C 19.058594 8.835938 18.476562 8.015625 17.328125 7.699219 C 15.964844 7.332031 14.589844 7.871094 13.851562 9.046875 C 12.878906 10.628906 13.03125 12.757812 14.265625 14.113281 C 15.46875 15.414062 16.71875 16.660156 17.917969 17.949219 C 20.5 20.71875 20.949219 24.5625 19.089844 27.816406 C 17.40625 30.785156 13.640625 32.164062 10.394531 31.007812 C 8.347656 30.265625 7.496094 28.566406 7.289062 26.398438 C 7.023438 23.742188 7.042969 23.710938 9.378906 23.117188 C 9.828125 23 10.269531 22.894531 10.773438 22.769531 C 10.773438 23.566406 10.753906 24.308594 10.773438 25.042969 C 10.839844 27.085938 11.601562 28.15625 13.097656 28.328125 C 14.824219 28.523438 16.070312 27.539062 16.523438 25.648438 C 16.925781 23.972656 16.503906 22.554688 15.390625 21.351562 C 14.214844 20.089844 13.058594 18.796875 11.800781 17.613281 C 9.941406 15.847656 9.328125 13.691406 9.796875 11.023438 Z M 9.796875 11.023438 "/>
<path style=" stroke:none;fill-rule:nonzero;fill:rgb(7.45098%,12.54902%,43.529412%);fill-opacity:1;" d="M 87.476562 27.808594 C 87.429688 28.089844 87.382812 28.269531 87.34375 28.464844 C 86.753906 31.5 86.542969 31.644531 83.445312 31.023438 C 83.964844 28.414062 84.453125 25.804688 84.976562 23.203125 C 86.074219 17.410156 87.230469 11.621094 88.328125 5.820312 C 88.476562 5.066406 88.691406 4.71875 89.488281 4.761719 C 91.242188 4.835938 93.019531 4.75 94.796875 4.789062 C 98.015625 4.855469 99.554688 6.554688 99.429688 10.023438 C 99.371094 11.222656 99.183594 12.457031 98.847656 13.613281 C 97.847656 17.082031 95.382812 18.941406 91.882812 19.011719 C 91.003906 19.019531 90.136719 19.011719 89.195312 19.011719 C 88.605469 21.96875 88.0625 24.839844 87.476562 27.808594 M 90.996094 9.664062 C 90.582031 11.824219 90.164062 13.96875 89.753906 16.128906 C 93.632812 16.785156 95.449219 15.339844 95.957031 11.351562 C 95.984375 11.15625 96 10.964844 96.011719 10.773438 C 96.144531 8.535156 95.382812 7.582031 93.28125 7.554688 C 90.960938 7.523438 91.539062 7.160156 90.996094 9.664062 Z M 90.996094 9.664062 "/>
<path style=" stroke:none;fill-rule:nonzero;fill:rgb(7.45098%,12.941176%,43.529412%);fill-opacity:1;" d="M 23.105469 23.703125 C 24.234375 17.777344 25.402344 11.9375 26.492188 6.089844 C 26.683594 5.097656 26.976562 4.625 27.976562 4.761719 C 28.671875 4.855469 29.386719 4.777344 30.179688 4.777344 C 29.550781 7.976562 28.96875 11.003906 28.382812 14.027344 C 27.34375 19.417969 26.273438 24.800781 25.257812 30.199219 C 25.125 30.9375 24.859375 31.246094 24.164062 31.191406 C 23.386719 31.125 22.613281 31.167969 21.660156 31.167969 C 22.144531 28.636719 22.625 26.21875 23.105469 23.703125 Z M 23.105469 23.703125 "/>
<path style=" stroke:none;fill-rule:nonzero;fill:rgb(10.588235%,10.588235%,10.588235%);fill-opacity:1;" d="M 7.449219 31.296875 C 7.210938 30.890625 7.042969 30.546875 6.695312 29.859375 C 11.828125 34.117188 16.164062 32.664062 20.253906 28.347656 C 18.570312 33.089844 13.539062 34.273438 10.148438 33.148438 C 9.1875 32.816406 8.375 31.96875 7.449219 31.296875 Z M 7.449219 31.296875 "/>
<path style=" stroke:none;fill-rule:nonzero;fill:rgb(11.764706%,11.764706%,11.764706%);fill-opacity:1;" d="M 76.617188 32.835938 C 74.777344 33.609375 72.945312 33.695312 71.121094 33.378906 C 69.402344 33.078125 67.988281 32.230469 67.304688 30.3125 C 68.683594 31.335938 70.089844 32.210938 71.820312 32.316406 C 73.511719 32.433594 75.203125 32.453125 76.683594 31.585938 C 78.117188 30.757812 79.378906 29.589844 80.792969 28.65625 C 79.929688 30.601562 78.574219 31.992188 76.617188 32.835938 Z M 76.617188 32.835938 "/>
<path style=" stroke:none;fill-rule:nonzero;fill:rgb(9.803922%,9.803922%,9.803922%);fill-opacity:1;" d="M 89.761719 21.140625 C 89.714844 20.195312 90.050781 19.800781 91.003906 19.867188 C 93.28125 20.050781 95.4375 19.597656 97.214844 17.902344 C 97.566406 17.566406 97.863281 17.140625 98.191406 16.765625 C 98.429688 16.496094 98.695312 16.246094 98.996094 16.070312 C 98.269531 18.90625 95.636719 20.898438 92.648438 21.023438 C 91.839844 21.050781 91.027344 21.050781 90.050781 21.09375 C 89.847656 21.121094 89.800781 21.140625 89.761719 21.140625 Z M 89.761719 21.140625 "/>
<path style=" stroke:none;fill-rule:nonzero;fill:rgb(34.901961%,34.901961%,34.901961%);fill-opacity:1;" d="M 62.773438 9.34375 C 62.144531 12.507812 61.59375 15.609375 60.996094 18.683594 C 60.402344 21.738281 59.75 24.773438 59.113281 27.914062 C 58.703125 27.230469 62.558594 6.820312 63.390625 5.597656 C 63.199219 6.8125 63.007812 8.035156 62.773438 9.34375 Z M 62.773438 9.34375 "/>
<path style=" stroke:none;fill-rule:nonzero;fill:rgb(5.882353%,5.882353%,5.882353%);fill-opacity:1;" d="M 32.894531 33.203125 C 31.261719 32.789062 30.019531 31.757812 29.644531 30.402344 C 32.398438 32.492188 35.171875 33.242188 38.261719 31.238281 C 38.464844 31.246094 38.535156 31.257812 38.609375 31.257812 C 38.65625 31.355469 38.695312 31.449219 38.6875 31.644531 C 38.535156 31.890625 38.4375 32.046875 38.34375 32.179688 C 38.011719 32.433594 37.695312 32.664062 37.222656 32.894531 C 36.722656 33.03125 36.371094 33.183594 36.011719 33.335938 C 35.226562 33.367188 34.453125 33.394531 33.546875 33.320312 C 33.238281 33.222656 33.066406 33.214844 32.894531 33.203125 Z M 32.894531 33.203125 "/>
<path style=" stroke:none;fill-rule:nonzero;fill:rgb(19.607843%,19.607843%,19.607843%);fill-opacity:1;" d="M 9.464844 17.640625 C 9.273438 17.257812 9.121094 16.949219 8.90625 16.496094 C 10.371094 17.160156 15.304688 22.886719 15.351562 23.695312 C 13.453125 21.746094 11.492188 19.734375 9.464844 17.640625 Z M 9.464844 17.640625 "/>
<path style=" stroke:none;fill-rule:nonzero;fill:rgb(12.54902%,12.54902%,12.54902%);fill-opacity:1;" d="M 88.003906 31.449219 C 87.664062 33.105469 87.535156 33.222656 85.957031 33.234375 C 85.097656 33.234375 84.257812 33.222656 83.417969 33.222656 C 82.699219 33.234375 82.359375 32.914062 82.511719 32.066406 C 83.761719 32.066406 84.984375 32.113281 86.199219 32.046875 C 86.65625 32.027344 87.109375 31.746094 87.691406 31.527344 C 87.890625 31.46875 87.949219 31.457031 88.003906 31.449219 Z M 88.003906 31.449219 "/>
<path style=" stroke:none;fill-rule:nonzero;fill:rgb(11.764706%,11.764706%,11.764706%);fill-opacity:1;" d="M 49.621094 31.804688 C 49.511719 33.019531 48.808594 33.328125 47.777344 33.242188 C 46.902344 33.164062 46.003906 33.25 45.125 33.214844 C 44.386719 33.183594 44.328125 33.078125 44.300781 32.078125 C 45.484375 32.078125 46.683594 32.105469 47.886719 32.058594 C 48.308594 32.035156 48.734375 31.816406 49.308594 31.703125 C 49.527344 31.738281 49.582031 31.777344 49.621094 31.804688 Z M 49.621094 31.804688 "/>
<path style=" stroke:none;fill-rule:nonzero;fill:rgb(11.764706%,11.764706%,11.764706%);fill-opacity:1;" d="M 26.222656 31.679688 C 26.054688 32.867188 25.421875 33.347656 24.292969 33.242188 C 23.425781 33.164062 22.539062 33.222656 21.640625 33.222656 C 21.007812 33.222656 20.640625 32.933594 20.777344 32.078125 C 21.964844 32.078125 23.148438 32.105469 24.320312 32.058594 C 24.757812 32.046875 25.210938 31.875 25.816406 31.71875 C 26.070312 31.671875 26.148438 31.671875 26.222656 31.679688 Z M 26.222656 31.679688 "/>
<path style=" stroke:none;fill-rule:nonzero;fill:rgb(12.54902%,12.54902%,12.54902%);fill-opacity:1;" d="M 20.441406 14.125 C 19.980469 14.242188 19.59375 14.335938 19.210938 14.425781 C 18.390625 14.605469 18.148438 14.144531 18.171875 13.527344 C 20.066406 13.027344 21.878906 12.535156 23.683594 12.0625 C 23.75 12.8125 23.414062 13.433594 22.488281 13.625 C 21.820312 13.757812 21.167969 13.941406 20.441406 14.125 Z M 20.441406 14.125 "/>
<path style=" stroke:none;fill-rule:nonzero;fill:rgb(15.294118%,15.294118%,15.294118%);fill-opacity:1;" d="M 42.273438 15.4375 C 41.484375 15.472656 41.121094 15.15625 41.160156 14.269531 C 42.132812 14.269531 43.058594 14.28125 43.984375 14.269531 C 44.90625 14.257812 45.910156 14.539062 46.53125 13.335938 C 46.671875 14.894531 46.269531 15.425781 44.988281 15.4375 C 44.121094 15.445312 43.242188 15.4375 42.273438 15.4375 Z M 42.273438 15.4375 "/>
<path style=" stroke:none;fill-rule:nonzero;fill:rgb(17.647059%,17.647059%,17.647059%);fill-opacity:1;" d="M 38.4375 32.210938 C 38.4375 32.046875 38.535156 31.890625 38.6875 31.730469 C 40.230469 32.355469 41.703125 32.179688 43.179688 31.660156 C 43.308594 32.828125 43.019531 33.203125 41.855469 33.234375 C 41.332031 33.25 40.796875 33.183594 40.28125 33.25 C 39.457031 33.347656 38.847656 33.089844 38.4375 32.210938 Z M 38.4375 32.210938 "/>
<path style=" stroke:none;fill-rule:nonzero;fill:rgb(12.941176%,12.941176%,12.941176%);fill-opacity:1;" d="M 39.832031 9.800781 C 38.816406 10.234375 37.890625 10.667969 36.992188 11.078125 C 36.824219 10.289062 37.96875 8.902344 39.203125 8.679688 C 40.5625 8.433594 41.28125 8.902344 41.414062 10.175781 C 40.914062 10.050781 40.414062 9.921875 39.832031 9.800781 Z M 39.832031 9.800781 "/>
<path style=" stroke:none;fill-rule:nonzero;fill:rgb(50.588235%,50.588235%,50.588235%);fill-opacity:1;" d="M 36.265625 15.195312 C 35.683594 18.152344 35.117188 21.015625 34.53125 23.984375 C 34.105469 23.394531 35.503906 15.300781 36.457031 13.316406 C 36.402344 13.914062 36.34375 14.511719 36.265625 15.195312 Z M 36.265625 15.195312 "/>
<path style=" stroke:none;fill-rule:nonzero;fill:rgb(11.372549%,11.372549%,11.372549%);fill-opacity:1;" d="M 53.980469 32.808594 C 53.542969 32.222656 53.585938 32.113281 54.269531 32.105469 C 55.597656 32.105469 56.945312 31.949219 58.234375 31.855469 C 58.03125 33.148438 57.945312 33.261719 56.445312 33.214844 C 55.632812 33.183594 54.84375 32.992188 53.980469 32.808594 Z M 53.980469 32.808594 "/>
<path style=" stroke:none;fill-rule:nonzero;fill:rgb(43.921569%,43.921569%,43.921569%);fill-opacity:1;" d="M 44.097656 25.554688 C 44.578125 23.25 45.046875 21.042969 45.523438 18.847656 C 45.636719 18.867188 45.746094 18.894531 45.859375 18.914062 C 45.371094 22.84375 44.246094 26.644531 43.644531 30.546875 C 43.507812 30.515625 43.386719 30.488281 43.253906 30.46875 C 43.386719 29.707031 43.515625 28.957031 43.652344 28.203125 C 43.796875 27.355469 43.9375 26.5 44.097656 25.554688 Z M 44.097656 25.554688 "/>
<path style=" stroke:none;fill-rule:nonzero;fill:rgb(16.470588%,16.470588%,16.470588%);fill-opacity:1;" d="M 17.941406 10.628906 C 16.746094 9.394531 15.371094 9.566406 14.410156 11.050781 C 13.792969 10.242188 14.503906 9.769531 14.835938 9.328125 C 15.402344 8.546875 16.316406 8.375 17.035156 8.816406 C 17.542969 9.132812 17.789062 9.964844 18.140625 10.570312 C 18.15625 10.589844 18.140625 10.65625 18.121094 10.675781 C 18.070312 10.6875 18.027344 10.675781 17.941406 10.628906 Z M 17.941406 10.628906 "/>
<path style=" stroke:none;fill-rule:nonzero;fill:rgb(52.156863%,52.156863%,52.156863%);fill-opacity:1;" d="M 73.824219 16.015625 C 73.3125 18.695312 72.859375 21.296875 72.382812 23.886719 C 72.226562 23.847656 72.054688 23.808594 71.894531 23.769531 C 72.601562 20.117188 73.3125 16.476562 74.007812 12.8125 C 74.144531 12.855469 74.285156 12.871094 74.425781 12.902344 C 74.238281 13.914062 74.058594 14.925781 73.824219 16.015625 Z M 73.824219 16.015625 "/>
<path style=" stroke:none;fill-rule:nonzero;fill:rgb(13.72549%,13.72549%,13.72549%);fill-opacity:1;" d="M 37.960938 22.902344 C 37.171875 22.886719 36.371094 23.046875 36.457031 21.757812 C 37.496094 21.757812 38.492188 21.757812 39.507812 21.757812 C 39.527344 22.894531 39.527344 22.894531 37.960938 22.902344 Z M 37.960938 22.902344 "/>
<path style=" stroke:none;fill-rule:nonzero;fill:rgb(79.607843%,79.607843%,79.607843%);fill-opacity:1;" d="M 52.039062 21.101562 C 52.269531 22.09375 52.585938 23.074219 52.765625 24.085938 C 53.160156 26.246094 53.492188 28.421875 53.828125 30.589844 C 53.859375 30.757812 53.8125 30.949219 53.578125 31.152344 C 53.3125 29.65625 53.074219 28.164062 52.804688 26.679688 C 52.5 25.011719 52.1875 23.355469 51.804688 21.5625 C 51.839844 21.332031 51.945312 21.21875 52.039062 21.101562 Z M 52.039062 21.101562 "/>
<path style=" stroke:none;fill-rule:nonzero;fill:rgb(52.156863%,52.156863%,52.156863%);fill-opacity:1;" d="M 83.144531 21.515625 C 82.96875 21.417969 82.777344 21.246094 82.796875 21.121094 C 83.246094 18.875 83.707031 16.628906 84.332031 14.425781 C 84.375 16.84375 83.601562 19.117188 83.144531 21.515625 Z M 83.144531 21.515625 "/>
<path style=" stroke:none;fill-rule:nonzero;fill:rgb(50.980392%,50.980392%,50.980392%);fill-opacity:1;" d="M 85.746094 6.222656 C 85.84375 5.945312 85.917969 5.753906 86.003906 5.570312 C 86.097656 5.609375 86.21875 5.636719 86.332031 5.664062 C 85.855469 8.074219 85.359375 10.472656 84.882812 12.882812 C 84.738281 12.855469 84.59375 12.8125 84.464844 12.785156 C 84.660156 11.746094 84.871094 10.714844 85.070312 9.675781 C 85.292969 8.546875 85.511719 7.429688 85.746094 6.222656 Z M 85.746094 6.222656 "/>
<path style=" stroke:none;fill-rule:nonzero;fill:rgb(47.058824%,47.058824%,47.058824%);fill-opacity:1;" d="M 28.402344 20.011719 C 28.015625 22.363281 27.648438 24.714844 27.273438 27.066406 C 27.09375 27.035156 26.921875 27 26.757812 26.96875 C 27.203125 24.621094 27.65625 22.277344 28.214844 19.925781 C 28.347656 19.953125 28.375 19.984375 28.402344 20.011719 Z M 28.402344 20.011719 "/>
<path style=" stroke:none;fill-rule:nonzero;fill:rgb(90.588235%,90.588235%,90.588235%);fill-opacity:1;" d="M 55.164062 11.9375 C 55.394531 13.21875 55.625 14.394531 55.851562 15.570312 C 55.75 15.589844 55.644531 15.609375 55.539062 15.628906 C 54.957031 12.351562 54.363281 9.078125 53.785156 5.800781 C 53.859375 5.78125 53.964844 5.761719 54.058594 5.742188 C 54.417969 7.777344 54.804688 9.808594 55.164062 11.9375 Z M 55.164062 11.9375 "/>
<path style=" stroke:none;fill-rule:nonzero;fill:rgb(34.901961%,34.901961%,34.901961%);fill-opacity:1;" d="M 52.039062 21.015625 C 51.945312 21.21875 51.839844 21.332031 51.726562 21.515625 C 51.421875 22.960938 51.132812 24.347656 50.808594 25.746094 C 50.359375 25.167969 50.992188 21.429688 51.917969 19.511719 C 51.972656 20.167969 52.011719 20.542969 52.039062 21.015625 Z M 52.039062 21.015625 "/>
<path style=" stroke:none;fill-rule:nonzero;fill:rgb(56.078431%,56.078431%,56.078431%);fill-opacity:1;" d="M 74.542969 10.355469 C 74.839844 8.75 75.136719 7.148438 75.449219 5.550781 C 75.597656 5.585938 75.738281 5.617188 75.898438 5.644531 C 75.605469 7.167969 75.304688 8.691406 74.90625 10.28125 C 74.703125 10.355469 74.617188 10.355469 74.542969 10.355469 Z M 74.542969 10.355469 "/>
<path style=" stroke:none;fill-rule:nonzero;fill:rgb(51.372549%,51.372549%,51.372549%);fill-opacity:1;" d="M 89.695312 21.1875 C 89.800781 21.140625 89.847656 21.121094 89.960938 21.128906 C 89.707031 22.816406 89.382812 24.492188 89.074219 26.160156 C 88.921875 26.132812 88.761719 26.09375 88.617188 26.054688 C 88.957031 24.445312 89.285156 22.84375 89.695312 21.1875 Z M 89.695312 21.1875 "/>
<path style=" stroke:none;fill-rule:nonzero;fill:rgb(56.078431%,56.078431%,56.078431%);fill-opacity:1;" d="M 88.0625 31.390625 C 87.949219 31.457031 87.890625 31.46875 87.742188 31.457031 C 87.902344 30.042969 88.148438 28.644531 88.382812 27.25 C 88.484375 27.265625 88.597656 27.277344 88.691406 27.296875 C 88.863281 28.683594 88.3125 29.984375 88.0625 31.390625 Z M 88.0625 31.390625 "/>
<path style=" stroke:none;fill-rule:nonzero;fill:rgb(49.019608%,49.019608%,49.019608%);fill-opacity:1;" d="M 30.46875 9.894531 C 30.140625 11.457031 29.808594 13.007812 29.386719 14.636719 C 29.308594 14.714844 29.253906 14.722656 29.253906 14.722656 C 29.503906 13.160156 29.78125 11.621094 30.121094 9.980469 C 30.296875 9.894531 30.390625 9.894531 30.46875 9.894531 Z M 30.46875 9.894531 "/>
<path style=" stroke:none;fill-rule:nonzero;fill:rgb(50.588235%,50.588235%,50.588235%);fill-opacity:1;" d="M 29.1875 14.769531 C 29.253906 14.722656 29.308594 14.714844 29.339844 14.714844 C 29.207031 16.09375 29.035156 17.46875 28.871094 18.847656 C 28.691406 18.828125 28.519531 18.796875 28.347656 18.769531 C 28.488281 17.4375 28.855469 16.136719 29.1875 14.769531 Z M 29.1875 14.769531 "/>
<path style=" stroke:none;fill-rule:nonzero;fill:rgb(47.45098%,47.45098%,47.45098%);fill-opacity:1;" d="M 49.433594 31.246094 C 49.59375 30.214844 49.730469 29.175781 49.890625 28.144531 C 50.027344 28.15625 50.15625 28.175781 50.28125 28.191406 C 50.542969 29.195312 50.035156 30.167969 49.730469 31.210938 C 49.546875 31.257812 49.488281 31.257812 49.433594 31.246094 Z M 49.433594 31.246094 "/>
<path style=" stroke:none;fill-rule:nonzero;fill:rgb(47.843137%,47.843137%,47.843137%);fill-opacity:1;" d="M 26.265625 31.625 C 26.148438 31.671875 26.070312 31.671875 25.882812 31.660156 C 26.039062 30.503906 26.296875 29.367188 26.5625 28.234375 C 26.664062 28.261719 26.777344 28.289062 26.867188 28.320312 C 26.691406 29.40625 26.492188 30.488281 26.265625 31.625 Z M 26.265625 31.625 "/>
<path style=" stroke:none;fill-rule:nonzero;fill:rgb(24.313725%,24.313725%,24.313725%);fill-opacity:1;" d="M 80.820312 27.757812 C 81.074219 27.238281 81.324219 26.710938 81.574219 26.1875 C 81.699219 26.246094 81.832031 26.324219 81.9375 26.382812 C 81.734375 26.933594 81.519531 27.480469 81.203125 28 C 81 27.902344 80.902344 27.835938 80.820312 27.757812 Z M 80.820312 27.757812 "/>
<path style=" stroke:none;fill-rule:nonzero;fill:rgb(52.941176%,52.941176%,52.941176%);fill-opacity:1;" d="M 74.511719 10.433594 C 74.617188 10.355469 74.703125 10.355469 74.847656 10.347656 C 74.828125 10.878906 74.746094 11.410156 74.585938 11.945312 C 74.449219 11.878906 74.371094 11.800781 74.296875 11.734375 C 74.359375 11.332031 74.425781 10.925781 74.511719 10.433594 Z M 74.511719 10.433594 "/>
<path style=" stroke:none;fill-rule:nonzero;fill:rgb(49.019608%,49.019608%,49.019608%);fill-opacity:1;" d="M 30.972656 6.753906 C 30.90625 7.4375 30.820312 8.113281 30.660156 8.867188 C 30.535156 8.933594 30.488281 8.921875 30.449219 8.902344 C 30.523438 8.230469 30.59375 7.542969 30.753906 6.785156 C 30.898438 6.726562 30.933594 6.742188 30.972656 6.753906 Z M 30.972656 6.753906 "/>
<path style=" stroke:none;fill-rule:nonzero;fill:rgb(34.117647%,34.117647%,34.117647%);fill-opacity:1;" d="M 82.347656 24.492188 C 82.273438 25.03125 82.167969 25.496094 82.0625 25.9375 C 81.9375 25.890625 81.820312 25.832031 81.679688 25.777344 C 81.878906 25.320312 82.09375 24.867188 82.347656 24.492188 Z M 82.347656 24.492188 "/>
<path style=" stroke:none;fill-rule:nonzero;fill:rgb(53.72549%,53.72549%,53.72549%);fill-opacity:1;" d="M 30.449219 8.910156 C 30.488281 8.921875 30.535156 8.933594 30.628906 8.960938 C 30.652344 9.230469 30.59375 9.5 30.515625 9.828125 C 30.390625 9.894531 30.296875 9.894531 30.152344 9.894531 C 30.121094 9.691406 30.160156 9.5 30.296875 9.222656 C 30.441406 9.078125 30.46875 9.019531 30.457031 8.941406 C 30.457031 8.941406 30.449219 8.921875 30.449219 8.910156 Z M 30.449219 8.910156 "/>
<path style=" stroke:none;fill-rule:nonzero;fill:rgb(17.647059%,17.647059%,17.647059%);fill-opacity:1;" d="M 36.078125 33.359375 C 36.371094 33.183594 36.722656 33.03125 37.15625 32.914062 C 36.867188 33.089844 36.503906 33.234375 36.078125 33.359375 Z M 36.078125 33.359375 "/>
<path style=" stroke:none;fill-rule:nonzero;fill:rgb(53.72549%,53.72549%,53.72549%);fill-opacity:1;" d="M 30.972656 6.742188 C 30.933594 6.742188 30.898438 6.726562 30.78125 6.699219 C 30.746094 6.4375 30.773438 6.1875 30.839844 5.644531 C 31.011719 6.03125 31.066406 6.164062 31.085938 6.417969 C 30.984375 6.570312 30.953125 6.640625 30.953125 6.726562 C 30.953125 6.726562 30.972656 6.734375 30.972656 6.742188 Z M 30.972656 6.742188 "/>
<path style=" stroke:none;fill-rule:nonzero;fill:rgb(52.156863%,52.156863%,52.156863%);fill-opacity:1;" d="M 74.265625 11.824219 C 74.371094 11.800781 74.449219 11.878906 74.558594 12.035156 C 74.550781 12.292969 74.492188 12.480469 74.449219 12.667969 C 74.378906 12.660156 74.3125 12.660156 74.238281 12.652344 C 74.238281 12.410156 74.238281 12.160156 74.265625 11.824219 Z M 74.265625 11.824219 "/>
<path style=" stroke:none;fill-rule:nonzero;fill:rgb(17.647059%,17.647059%,17.647059%);fill-opacity:1;" d="M 38.636719 31.21875 C 38.535156 31.257812 38.464844 31.246094 38.335938 31.21875 C 38.410156 31.179688 38.542969 31.179688 38.636719 31.21875 Z M 38.636719 31.21875 "/>
<path style=" stroke:none;fill-rule:nonzero;fill:rgb(17.647059%,17.647059%,17.647059%);fill-opacity:1;" d="M 32.945312 33.261719 C 33.066406 33.214844 33.238281 33.222656 33.464844 33.292969 C 33.320312 33.335938 33.160156 33.320312 32.945312 33.261719 Z M 32.945312 33.261719 "/>
<path style=" stroke:none;fill-rule:nonzero;fill:rgb(47.058824%,47.058824%,47.058824%);fill-opacity:1;" d="M 28.28125 19.878906 C 28.335938 19.75 28.433594 19.675781 28.519531 19.597656 C 28.519531 19.714844 28.507812 19.828125 28.449219 19.984375 C 28.375 19.984375 28.347656 19.953125 28.28125 19.878906 Z M 28.28125 19.878906 "/>
<path style=" stroke:none;fill-rule:nonzero;fill:rgb(11.764706%,11.764706%,11.764706%);fill-opacity:1;" d="M 49.410156 31.304688 C 49.488281 31.257812 49.546875 31.257812 49.671875 31.257812 C 49.730469 31.390625 49.710938 31.535156 49.660156 31.738281 C 49.582031 31.777344 49.527344 31.738281 49.394531 31.660156 C 49.335938 31.527344 49.367188 31.441406 49.410156 31.304688 Z M 49.410156 31.304688 "/>
<path style=" stroke:none;fill-rule:nonzero;fill:rgb(49.019608%,49.019608%,49.019608%);fill-opacity:1;" d="M 30.402344 8.933594 C 30.46875 9.019531 30.441406 9.078125 30.355469 9.171875 C 30.316406 9.113281 30.328125 9.027344 30.402344 8.933594 Z M 30.402344 8.933594 "/>
<path style=" stroke:none;fill-rule:nonzero;fill:rgb(11.764706%,11.764706%,11.764706%);fill-opacity:1;" d="M 80.792969 27.894531 C 80.902344 27.835938 81 27.902344 81.140625 28.058594 C 81.039062 28.097656 80.886719 28.058594 80.792969 27.894531 Z M 80.792969 27.894531 "/>
<path style=" stroke:none;fill-rule:nonzero;fill:rgb(11.764706%,11.764706%,11.764706%);fill-opacity:1;" d="M 80.722656 28.308594 C 80.792969 28.320312 80.792969 28.386719 80.792969 28.464844 C 80.765625 28.421875 80.714844 28.394531 80.722656 28.308594 Z M 80.722656 28.308594 "/>
<path style=" stroke:none;fill-rule:nonzero;fill:rgb(24.313725%,24.313725%,24.313725%);fill-opacity:1;" d="M 81.792969 26.132812 C 81.800781 26.066406 81.851562 26.054688 81.917969 26.054688 C 81.886719 26.09375 81.859375 26.140625 81.792969 26.132812 Z M 81.792969 26.132812 "/>
<path style=" stroke:none;fill-rule:nonzero;fill:rgb(49.019608%,49.019608%,49.019608%);fill-opacity:1;" d="M 31.027344 6.726562 C 30.953125 6.640625 30.984375 6.570312 31.085938 6.484375 C 31.105469 6.554688 31.09375 6.640625 31.027344 6.726562 Z M 31.027344 6.726562 "/>
<path style=" stroke:none;fill-rule:nonzero;fill:rgb(94.509804%,94.901961%,96.078431%);fill-opacity:1;" d="M 91.019531 9.578125 C 91.539062 7.160156 90.960938 7.523438 93.28125 7.554688 C 95.382812 7.582031 96.144531 8.535156 96.011719 10.773438 C 96 10.964844 95.984375 11.15625 95.957031 11.351562 C 95.449219 15.339844 93.632812 16.785156 89.753906 16.128906 C 90.164062 13.96875 90.582031 11.824219 91.019531 9.578125 M 91.839844 9.789062 C 91.5 11.535156 91.15625 13.277344 90.8125 15.023438 C 90.941406 15.050781 91.082031 15.070312 91.214844 15.097656 C 91.605469 13.347656 91.96875 11.582031 92.535156 9.800781 C 93.328125 9.953125 94.132812 10.117188 94.90625 10.261719 C 94.84375 8.980469 94.195312 8.578125 92.164062 8.730469 C 92.09375 9.019531 92.019531 9.34375 91.839844 9.789062 Z M 91.839844 9.789062 "/>
<path style=" stroke:none;fill-rule:nonzero;fill:rgb(11.764706%,11.764706%,11.764706%);fill-opacity:1;" d="M 91.953125 9.664062 C 92.019531 9.34375 92.09375 9.019531 92.164062 8.730469 C 94.195312 8.578125 94.84375 8.980469 94.90625 10.261719 C 94.132812 10.117188 93.328125 9.953125 92.417969 9.769531 C 92.171875 9.722656 92.054688 9.691406 91.953125 9.664062 Z M 91.953125 9.664062 "/>
<path style=" stroke:none;fill-rule:nonzero;fill:rgb(52.54902%,52.54902%,52.54902%);fill-opacity:1;" d="M 91.894531 9.722656 C 92.054688 9.691406 92.171875 9.722656 92.3125 9.789062 C 91.96875 11.582031 91.605469 13.347656 91.214844 15.097656 C 91.082031 15.070312 90.941406 15.050781 90.8125 15.023438 C 91.15625 13.277344 91.5 11.535156 91.894531 9.722656 Z M 91.894531 9.722656 "/>
</g>
</svg>
