<?xml version="1.0" standalone="no"?>
<!DOCTYPE svg PUBLIC "-//W3C//DTD SVG 20010904//EN"
 "http://www.w3.org/TR/2001/REC-SVG-20010904/DTD/svg10.dtd">
<svg version="1.0" xmlns="http://www.w3.org/2000/svg"
 width="64.000000pt" height="64.000000pt" viewBox="0 0 64.000000 64.000000"
 preserveAspectRatio="xMidYMid meet">

<g transform="translate(0.000000,64.000000) scale(0.100000,-0.100000)"
fill="#000000" stroke="none">
<path d="M0 320 l0 -320 320 0 320 0 0 320 0 320 -320 0 -320 0 0 -320z m323
263 c-107 -2 -163 -7 -163 -14 0 -6 9 -13 20 -16 11 -3 20 -13 19 -22 0 -10
-2 -11 -6 -3 -2 6 -11 12 -18 12 -15 0 -28 27 -19 41 3 5 78 8 167 7 l162 -2
-162 -3z m157 -33 c0 -5 -10 -10 -22 -9 -22 0 -22 1 -3 9 11 5 21 9 23 9 1 1
2 -3 2 -9z m-40 -86 c0 -37 -7 -56 -36 -95 l-36 -49 36 -49 c29 -39 36 -58 36
-95 l0 -46 -120 0 -120 0 0 48 c0 39 6 55 35 91 19 24 35 45 35 47 0 2 -16 26
-35 53 -28 39 -35 58 -35 95 l0 46 120 0 120 0 0 -46z m-240 -358 c0 -7 -9
-16 -20 -19 -11 -3 -20 -10 -20 -16 0 -7 53 -12 163 -13 l162 -2 -159 -3 c-88
-2 -163 0 -168 5 -12 12 1 42 18 42 8 0 14 5 14 10 0 6 2 10 5 10 3 0 5 -6 5
-14z m280 -15 c0 -5 -9 -7 -20 -4 -11 3 -20 7 -20 9 0 2 9 4 20 4 11 0 20 -4
20 -9z"/>
</g>
</svg>
